<svg width="41" height="41" viewBox="0 0 41 41" fill="none" xmlns="http://www.w3.org/2000/svg">
<path d="M20.5 2.5625C10.5943 2.5625 2.5625 10.5943 2.5625 20.5C2.5625 30.4057 10.5943 38.4375 20.5 38.4375C30.4057 38.4375 38.4375 30.4057 38.4375 20.5C38.4375 10.5943 30.4057 2.5625 20.5 2.5625ZM20.5 30.9102C19.6151 30.9102 18.8984 30.1935 18.8984 29.3086C18.8984 28.4237 19.6151 27.707 20.5 27.707C21.3849 27.707 22.1016 28.4237 22.1016 29.3086C22.1016 30.1935 21.3849 30.9102 20.5 30.9102ZM23.0185 22.1216C22.6559 22.2616 22.3439 22.5076 22.1232 22.8276C21.9025 23.1476 21.7833 23.5266 21.7812 23.9153V24.8242C21.7812 25.0004 21.6371 25.1445 21.4609 25.1445H19.5391C19.3629 25.1445 19.2188 25.0004 19.2188 24.8242V23.9634C19.2188 23.0385 19.487 22.1256 20.0155 21.3648C20.532 20.6201 21.2527 20.0516 22.1016 19.7272C23.4629 19.2027 24.3438 18.0616 24.3438 16.8164C24.3438 15.0507 22.6181 13.6133 20.5 13.6133C18.3819 13.6133 16.6562 15.0507 16.6562 16.8164V17.1207C16.6562 17.2969 16.5121 17.441 16.3359 17.441H14.4141C14.2379 17.441 14.0938 17.2969 14.0938 17.1207V16.8164C14.0938 15.2429 14.7824 13.7734 16.0316 12.6804C17.2328 11.6273 18.8184 11.0508 20.5 11.0508C22.1816 11.0508 23.7672 11.6313 24.9684 12.6804C26.2176 13.7734 26.9062 15.2429 26.9062 16.8164C26.9062 19.1307 25.3808 21.2127 23.0185 22.1216Z" fill="url(#paint0_linear_19_477)"/>
<defs>
<linearGradient id="paint0_linear_19_477" x1="2.5625" y1="2.89883" x2="10.9747" y2="44.0513" gradientUnits="userSpaceOnUse">
<stop stop-color="#AE95E2"/>
<stop offset="1" stop-color="#6691FF"/>
</linearGradient>
</defs>
</svg>
