<svg width="152" height="121" viewBox="0 0 152 121" fill="none" xmlns="http://www.w3.org/2000/svg">
<path d="M116.643 6.6332C113.247 3.90589 109.304 1.99678 105.049 0.983777C102.628 0.399354 100.169 0.126626 97.6702 0.0487031C95.8354 -0.0292199 93.9615 0.00973919 92.1267 0.00973919H65.8536C64.0187 0.00973919 62.1449 0.00974157 60.3101 0.0487031C57.8116 0.126626 55.3912 0.399354 52.9317 0.983777C48.6765 1.99678 44.7726 3.90589 41.3763 6.6332C34.5054 12.1268 30.5234 20.4256 30.5234 29.2309C30.5234 38.0362 34.5054 46.335 41.3763 51.8285C44.7726 54.5558 48.7155 56.465 52.9708 57.478C55.3912 58.0624 57.8506 58.3351 60.3491 58.413C62.1839 58.491 64.0578 58.452 65.8926 58.452H92.1658C94.0006 58.452 95.8744 58.452 97.7093 58.413C100.208 58.3351 102.628 58.0624 105.088 57.478C109.343 56.465 113.247 54.5558 116.643 51.8285C123.514 46.335 127.496 38.0362 127.496 29.2309C127.496 20.4256 123.514 12.1268 116.643 6.6332ZM103.799 37.1011C102.511 37.9972 101.067 38.5427 99.5441 38.7764C98.0216 39.0102 96.46 38.9712 94.9375 38.9712H63.1209C61.5593 38.9712 60.0368 39.0102 58.5143 38.7764C56.9527 38.5427 55.5473 37.9972 54.2591 37.1011C51.6825 35.3089 50.1209 32.3867 50.1209 29.2309C50.1209 26.075 51.6825 23.1529 54.2591 21.3606C55.5473 20.4645 56.9918 19.9191 58.5143 19.6853C60.0368 19.4515 61.5983 19.4905 63.1209 19.4905H94.9375C96.4991 19.4905 98.0216 19.4515 99.5441 19.6853C101.106 19.9191 102.511 20.4645 103.799 21.3606C106.376 23.1529 107.937 26.075 107.937 29.2309C107.976 32.3867 106.415 35.3089 103.799 37.1011Z" fill="url(#paint0_linear_19_312)"/>
<path d="M13.9367 95.0134C10.3689 95.0134 6.88223 96.2972 4.32805 98.748C1.77387 101.199 0.476501 104.583 0.476501 107.968C0.476501 111.391 1.73332 114.737 4.24696 117.227C6.7606 119.716 10.2473 121 13.815 121C17.3828 121 20.8694 119.716 23.4236 117.265C25.9778 114.815 27.2752 111.43 27.2752 108.046C27.2752 104.622 26.0183 101.277 23.5047 98.7869C20.9505 96.3361 17.5044 95.0134 13.9367 95.0134ZM21.0721 109.524C20.9911 109.991 20.8289 110.458 20.6667 110.924C20.5045 111.352 20.2613 111.78 20.018 112.169C19.7748 112.558 19.491 112.908 19.1666 113.22C18.8423 113.531 18.4774 113.803 18.1125 114.075C17.7071 114.309 17.3017 114.542 16.8557 114.698C16.4098 114.892 15.9232 115.009 15.4367 115.087C14.9502 115.165 14.4232 115.204 13.9367 115.204C13.4096 115.204 12.9231 115.165 12.4366 115.048C11.9501 114.97 11.4635 114.815 11.0176 114.659C10.5716 114.503 10.1662 114.27 9.76077 114.037C9.39589 113.803 9.03099 113.492 8.70665 113.181C8.38231 112.869 8.09852 112.519 7.85526 112.13C7.61201 111.741 7.36874 111.313 7.20657 110.885C7.00385 110.419 6.88222 109.952 6.80114 109.485C6.72005 108.979 6.67952 108.474 6.67952 107.968C6.67952 107.462 6.72007 106.956 6.8417 106.451C6.92278 105.984 7.08495 105.517 7.24712 105.05C7.40929 104.622 7.65254 104.194 7.89579 103.805C8.13905 103.416 8.42286 103.066 8.7472 102.755C9.07155 102.444 9.43642 102.171 9.8013 101.899C10.2067 101.666 10.6121 101.432 11.0581 101.277C11.5041 101.082 11.9906 100.965 12.4771 100.888C12.9636 100.81 13.4907 100.771 13.9772 100.771C14.5042 100.771 14.9908 100.81 15.4773 100.927C15.9638 101.004 16.4503 101.16 16.8963 101.316C17.3422 101.471 17.7476 101.705 18.1531 101.938C18.518 102.171 18.8829 102.483 19.2072 102.794C19.5315 103.105 19.8153 103.455 20.0586 103.844C20.3018 104.233 20.5451 104.661 20.7073 105.089C20.91 105.556 21.0316 106.023 21.1127 106.49C21.1938 106.995 21.2343 107.501 21.2343 108.007C21.1938 108.551 21.1532 109.018 21.0721 109.524Z" fill="url(#paint1_linear_19_312)"/>
<path d="M118.302 107.051C118.302 107.766 118.302 108.481 118.265 109.157C118.228 109.594 118.191 110.071 118.117 110.508C117.97 111.342 117.711 112.136 117.305 112.851C116.272 114.6 114.426 115.474 112.581 115.513C110.698 115.553 108.889 114.719 107.893 112.891C107.487 112.136 107.228 111.342 107.081 110.508C106.896 109.395 106.822 108.203 106.822 107.091C106.822 106.336 106.785 105.621 106.785 104.866V101.052V95.0134H101.174V105.303C101.174 106.296 101.174 107.29 101.211 108.283C101.248 108.998 101.248 109.753 101.322 110.468C101.47 112.176 101.765 113.845 102.466 115.434C103.943 118.652 106.822 120.519 110.034 120.916C111.621 121.115 113.245 120.956 114.758 120.479C116.235 120.003 117.785 119.208 118.856 117.976C118.893 118.771 118.966 119.645 119.003 120.44H123.913V95.0134H118.302V107.051Z" fill="url(#paint2_linear_19_312)"/>
<path d="M151.128 110.52C150.28 108.107 148.201 106.628 146.006 105.772C144.774 105.266 143.503 104.994 142.232 104.682C141.654 104.565 141.115 104.449 140.537 104.293C140.075 104.176 139.575 104.021 139.113 103.826C138.612 103.592 138.111 103.32 137.765 102.892C137.457 102.542 137.303 102.075 137.38 101.607C137.457 101.063 137.765 100.596 138.188 100.245C138.496 100.012 138.805 99.8171 139.151 99.7004C139.613 99.5058 140.075 99.4279 140.537 99.3501C141.5 99.2333 142.463 99.3111 143.387 99.5058C144.812 99.8171 146.121 100.362 147.354 101.14C148.316 99.7782 149.318 98.4549 150.28 97.0927C148.316 95.6526 146.121 94.7574 143.734 94.3682C142.386 94.1736 141.038 94.1347 139.729 94.3293C138.689 94.485 137.688 94.7185 136.725 95.1466C135.454 95.6915 134.299 96.4699 133.413 97.5986C132.758 98.3771 132.296 99.3111 132.027 100.284C131.68 101.491 131.68 102.775 132.065 104.021C132.412 105.149 133.067 106.083 133.914 106.862C135.724 108.458 138.304 109.041 140.499 109.508C141.269 109.664 142.039 109.82 142.81 110.053C143.426 110.248 144.08 110.443 144.619 110.793C145.043 111.065 145.467 111.416 145.736 111.844C145.967 112.233 146.083 112.661 146.044 113.089C146.006 113.517 145.852 113.868 145.582 114.218C145.274 114.607 144.889 114.88 144.465 115.113C143.888 115.385 143.272 115.541 142.655 115.619C141.808 115.736 140.884 115.697 140.037 115.58C139.074 115.463 138.188 115.23 137.264 114.918C135.878 114.412 134.684 113.673 133.529 112.778C132.489 114.179 131.449 115.58 130.409 116.981C132.258 118.538 134.376 119.667 136.686 120.367C137.957 120.718 139.267 120.951 140.614 120.99C141.693 121.029 142.733 120.951 143.811 120.795C145.159 120.562 146.506 120.134 147.7 119.394C148.586 118.849 149.318 118.188 149.972 117.37C150.781 116.32 151.282 115.074 151.474 113.751C151.59 112.661 151.513 111.571 151.128 110.52Z" fill="url(#paint3_linear_19_312)"/>
<path d="M45.6687 114.826C44.3465 115.134 42.911 115.096 41.5888 114.672C40.2667 114.248 39.1334 113.4 38.3023 112.244C37.509 111.088 37.0935 109.701 37.0179 108.314C36.9423 106.926 37.2068 105.462 37.849 104.229C38.5289 102.919 39.5111 102.033 40.8333 101.455C41.4 101.223 41.9666 101.031 42.571 100.954C43.3643 100.838 44.0821 100.799 44.8754 100.915C46.2731 101.069 47.5575 101.609 48.7286 102.379C49.8996 100.877 51.0329 99.3737 52.204 97.9094C50.2018 96.2909 47.9352 95.3661 45.442 95.0964C42.9865 94.8267 40.4555 95.212 38.189 96.291C35.9224 97.4084 34.1091 99.1425 32.9003 101.416C31.7292 103.651 31.2381 106.233 31.3514 108.737C31.4648 111.242 32.2203 113.747 33.6558 115.828C35.0913 117.947 37.1312 119.45 39.5111 120.259C41.8533 121.068 44.4221 121.222 46.8398 120.683C49.2574 120.144 51.524 118.949 53.2617 117.099C51.9396 115.712 50.6552 114.325 49.333 112.938C48.2375 113.862 46.9909 114.518 45.6687 114.826Z" fill="url(#paint4_linear_19_312)"/>
<path d="M93.8658 82.0201H88.9933V120.188H93.8658V82.0201Z" fill="url(#paint5_linear_19_312)"/>
<path d="M75.793 107.051C75.793 107.766 75.793 108.481 75.7532 109.157C75.7134 109.594 75.6735 110.071 75.5939 110.508C75.4347 111.342 75.1561 112.136 74.7182 112.851C73.6036 114.6 71.6131 115.474 69.6227 115.513C67.5925 115.553 65.642 114.719 64.5672 112.891C64.1293 112.136 63.8506 111.342 63.6914 110.508C63.4924 109.395 63.4127 108.203 63.4127 107.091C63.4127 106.336 63.3729 105.621 63.3729 104.866V101.052V95.0134H57.3221V105.303C57.3221 106.296 57.3221 107.29 57.3619 108.283C57.4017 108.998 57.4017 109.753 57.4813 110.468C57.6406 112.176 57.9591 113.845 58.7154 115.434C60.3077 118.652 63.4128 120.519 66.876 120.916C68.5878 121.115 70.3393 120.956 71.9714 120.479C73.5637 120.003 75.2357 119.208 76.3901 117.976C76.4299 118.771 76.5095 119.645 76.5493 120.44H81.6846V95.0134H75.793V107.051Z" fill="url(#paint6_linear_19_312)"/>
<defs>
<linearGradient id="paint0_linear_19_312" x1="30.5234" y1="0.548079" x2="39.0044" y2="69.3671" gradientUnits="userSpaceOnUse">
<stop stop-color="#AE95E2"/>
<stop offset="1" stop-color="#6691FF"/>
</linearGradient>
<linearGradient id="paint1_linear_19_312" x1="0.476501" y1="95.2571" x2="6.39956" y2="125.138" gradientUnits="userSpaceOnUse">
<stop stop-color="#AE95E2"/>
<stop offset="1" stop-color="#6691FF"/>
</linearGradient>
<linearGradient id="paint2_linear_19_312" x1="101.174" y1="95.2571" x2="108.054" y2="124.705" gradientUnits="userSpaceOnUse">
<stop stop-color="#AE95E2"/>
<stop offset="1" stop-color="#6691FF"/>
</linearGradient>
<linearGradient id="paint3_linear_19_312" x1="130.409" y1="94.4526" x2="138.194" y2="124.458" gradientUnits="userSpaceOnUse">
<stop stop-color="#AE95E2"/>
<stop offset="1" stop-color="#6691FF"/>
</linearGradient>
<linearGradient id="paint4_linear_19_312" x1="31.3356" y1="95.2571" x2="38.4422" y2="124.59" gradientUnits="userSpaceOnUse">
<stop stop-color="#AE95E2"/>
<stop offset="1" stop-color="#6691FF"/>
</linearGradient>
<linearGradient id="paint5_linear_19_312" x1="88.9933" y1="82.378" x2="109.486" y2="95.1758" gradientUnits="userSpaceOnUse">
<stop stop-color="#AE95E2"/>
<stop offset="1" stop-color="#6691FF"/>
</linearGradient>
<linearGradient id="paint6_linear_19_312" x1="57.3221" y1="95.2571" x2="63.7862" y2="124.903" gradientUnits="userSpaceOnUse">
<stop stop-color="#AE95E2"/>
<stop offset="1" stop-color="#6691FF"/>
</linearGradient>
</defs>
</svg>
