<svg width="30" height="68" viewBox="0 0 30 68" fill="none" xmlns="http://www.w3.org/2000/svg">
<path d="M20.025 11.1896C22.2615 8.35255 21.7615 4.25006 18.9082 2.02636C16.0549 -0.197329 11.9288 0.299844 9.69229 3.13684C7.45581 5.97385 7.95585 10.0764 10.8092 12.3C13.6625 14.5237 17.7886 14.0266 20.025 11.1896Z" fill="url(#paint0_linear_178_691)"/>
<path d="M21.7425 17.311C21.4574 16.9297 21.0557 16.6506 20.5976 16.5155C20.3545 16.395 20.0868 16.3318 19.8152 16.3309H9.90469C9.63433 16.3304 9.36772 16.3937 9.1267 16.5155C8.66701 16.6498 8.26365 16.929 7.9774 17.311C7.63261 17.7505 -0.461142 28.6636 0.0206809 40.6579C0.0446205 41.2355 0.292062 41.7815 0.711328 42.182C1.13059 42.5825 1.68926 42.8065 2.27066 42.8071H2.36349C2.65884 42.7958 2.94904 42.7266 3.21744 42.6036C3.48585 42.4805 3.72718 42.306 3.9276 42.09C4.12801 41.874 4.28356 41.6207 4.38532 41.3448C4.48709 41.0689 4.53308 40.7757 4.52064 40.4821C4.29962 35.0673 6.20482 29.7536 8.09233 25.8991V65.1212C8.09233 65.8847 8.39737 66.6169 8.94035 67.1568C9.48334 67.6967 10.2198 68 10.9877 68C11.7556 68 12.492 67.6967 13.035 67.1568C13.578 66.6169 13.883 65.8847 13.883 65.1212V41.0798H15.8148V46.8419C15.7995 47.2291 15.8631 47.6154 16.0016 47.9776C16.1402 48.3398 16.3508 48.6705 16.621 48.9498C16.8911 49.2291 17.2152 49.4513 17.5738 49.6031C17.9324 49.7549 18.3182 49.8331 18.7079 49.8331C19.0977 49.8331 19.4834 49.7549 19.842 49.6031C20.2006 49.4513 20.5247 49.2291 20.7949 48.9498C21.065 48.6705 21.2757 48.3398 21.4142 47.9776C21.5527 47.6154 21.6163 47.2291 21.6011 46.8419V25.8815C23.4886 29.736 25.3982 35.0497 25.1727 40.4645C25.1488 41.0572 25.3626 41.6351 25.7671 42.0711C26.1717 42.5071 26.7338 42.7655 27.3299 42.7895H27.4271C28.0078 42.7878 28.5653 42.5633 28.9837 42.1629C29.402 41.7626 29.6488 41.2171 29.6727 40.6403C30.1811 28.6636 22.0873 17.7681 21.7425 17.311Z" fill="url(#paint1_linear_178_691)"/>
<defs>
<linearGradient id="paint0_linear_178_691" x1="-6.22091e-07" y1="1.26769" x2="30.7236" y2="67.5233" gradientUnits="userSpaceOnUse">
<stop stop-color="#AE95E2"/>
<stop offset="1" stop-color="#6691FF"/>
</linearGradient>
<linearGradient id="paint1_linear_178_691" x1="-6.22091e-07" y1="1.26769" x2="30.7236" y2="67.5233" gradientUnits="userSpaceOnUse">
<stop stop-color="#AE95E2"/>
<stop offset="1" stop-color="#6691FF"/>
</linearGradient>
</defs>
</svg>
