<svg width="264" height="162" viewBox="0 0 264 162" fill="none" xmlns="http://www.w3.org/2000/svg">
<path d="M55.5918 87.1796C54.3633 80.1096 55.9927 72.8418 60.1229 66.969C64.2531 61.0962 70.5473 57.0975 77.6259 55.8492C81.1937 55.2183 84.8532 55.3241 88.3785 56.1599C91.9038 56.9956 95.22 58.5437 98.1227 60.7086L130.149 15.4393L125.281 11.9866C123.931 11.0503 122.296 10.6146 120.659 10.7547C119.021 10.8948 117.484 11.602 116.314 12.7539L99.2757 28.2273C96.2069 27.3088 93.0835 26.5827 89.924 26.0533L81.8533 4.5696C81.2349 3.03444 80.1116 1.755 78.6682 0.941589C77.2248 0.128179 75.5471 -0.170789 73.9108 0.09383L62.3813 2.1399C60.7515 2.43485 59.2741 3.28374 58.1999 4.54246C57.1258 5.80119 56.5211 7.39218 56.4885 9.04538V31.9358C53.7016 33.4148 51.0447 35.1259 48.546 37.0509L27.6648 28.2273C26.139 27.5388 24.42 27.4049 22.8057 27.8487C21.1913 28.2924 19.7833 29.2859 18.8256 30.657L12.1641 40.12C11.1352 41.4103 10.575 43.0106 10.575 44.6597C10.575 46.3089 11.1352 47.9092 12.1641 49.1995L28.3054 65.6959C27.263 68.7255 26.5334 71.8535 26.1276 75.0311L4.60592 83.0875C3.04837 83.6388 1.73996 84.7284 0.917535 86.1593C0.0951076 87.5901 -0.187028 89.2676 0.122204 90.8881L2.0438 102.397C2.33927 104.024 3.18966 105.499 4.45061 106.571C5.71156 107.644 7.30538 108.247 8.9615 108.28H32.0204C33.4845 111.112 35.1994 113.808 37.1447 116.336L27.6648 137.564C26.9711 139.054 26.8219 140.74 27.2431 142.328C27.6643 143.916 28.6294 145.307 29.9707 146.26L35.6074 150.224L67.2494 104.955C64.2023 102.934 61.5981 100.316 59.5942 97.2608C57.5904 94.2054 56.2288 90.7757 55.5918 87.1796Z" fill="#F4F3F7"/>
<path d="M86.8495 109.175C93.9281 107.927 100.222 103.928 104.352 98.055C108.483 92.1822 110.112 84.9144 108.884 77.8444C108.309 74.4214 107.063 71.1453 105.216 68.2046C103.369 65.2639 100.959 62.7164 98.1227 60.7086L67.2494 104.955C73.0146 108.782 80.0167 110.289 86.8495 109.175Z" fill="#F4F3F7"/>
<path d="M115.801 83.7269L137.451 51.3734H163.841L126.818 105.85L152.439 161.477H127.843L111.318 125.671L88.1306 161.477H62.5095L101.71 103.548L115.801 83.7269Z" fill="#F4F3F7"/>
<path d="M225.459 51.3734C249.799 51.3734 262.994 62.2432 262.994 83.2154C263.363 89.544 261.541 95.8068 257.832 100.953C254.123 106.099 248.754 109.815 242.625 111.477C248.903 113.779 252.49 118.638 252.49 128.613C252.49 132.321 251.08 144.725 251.08 148.434C251.08 154.828 251.08 156.874 256.333 158.536V161.477H229.559C228.48 158.972 227.914 156.276 227.893 153.549C227.893 147.027 229.046 137.564 229.046 133.983C229.046 123.625 225.587 118.894 213.674 118.894H193.305L186.003 161.477H163.072L182.672 51.3734H225.459ZM196.508 100.479H219.823C222.402 100.8 225.02 100.582 227.509 99.8366C229.999 99.0917 232.306 97.837 234.282 96.1524C236.259 94.4679 237.863 92.3907 238.99 90.0531C240.118 87.7155 240.745 85.169 240.832 82.576C240.832 73.2408 234.042 69.788 224.947 69.788H201.888L196.508 100.479Z" fill="#F4F3F7"/>
</svg>
