<svg width="263" height="161" viewBox="0 0 263 161" fill="none" xmlns="http://www.w3.org/2000/svg">
<g clip-path="url(#clip0_112_680)">
<path d="M55.4695 86.7021C54.241 79.6322 55.8704 72.3644 60.0006 66.4916C64.1309 60.6188 70.425 56.62 77.5036 55.3717C81.0715 54.7409 84.7309 54.8466 88.2562 55.6824C91.7815 56.5182 95.0978 58.0663 98.0005 60.2311L130.027 14.9619L125.159 11.5091C123.809 10.5729 122.174 10.1371 120.536 10.2772C118.899 10.4173 117.362 11.1245 116.191 12.2764L99.1534 27.7498C96.0846 26.8313 92.9613 26.1052 89.8017 25.5758L81.7311 4.09213C81.1127 2.55697 79.9894 1.27753 78.546 0.464119C77.1025 -0.349291 75.4248 -0.648259 73.7886 -0.38364L62.2591 1.66243C60.6292 1.95738 59.1518 2.80627 58.0777 4.06499C57.0035 5.32372 56.3989 6.91471 56.3663 8.56791V31.4583C53.5793 32.9373 50.9224 34.6484 48.4238 36.5735L27.5426 27.7498C26.0168 27.0614 24.2978 26.9274 22.6834 27.3712C21.0691 27.8149 19.6611 28.8084 18.7033 30.1795L12.0419 39.6426C11.013 40.9328 10.4528 42.5332 10.4528 44.1823C10.4528 45.8314 11.013 47.4318 12.0419 48.722L28.1831 65.2184C27.1408 68.2481 26.4111 71.376 26.0053 74.5536L4.48366 82.61C2.92612 83.1613 1.61771 84.251 0.795282 85.6818C-0.0271459 87.1126 -0.309281 88.7901 -4.93526e-05 90.4106L1.92155 101.92C2.21702 103.547 3.06741 105.022 4.32836 106.094C5.58931 107.166 7.18313 107.77 8.83924 107.802H31.8982C33.3622 110.635 35.0771 113.331 37.0224 115.859L27.5426 137.087C26.8489 138.577 26.6997 140.262 27.1209 141.851C27.5421 143.439 28.5071 144.83 29.8485 145.782L35.4851 149.747L67.1271 104.477C64.0801 102.456 61.4758 99.8387 59.472 96.7833C57.4682 93.7279 56.1065 90.2983 55.4695 86.7021Z" fill="url(#paint0_linear_112_680)"/>
<path d="M86.7272 108.697C93.8058 107.449 100.1 103.45 104.23 97.5775C108.36 91.7047 109.99 84.4369 108.761 77.367C108.187 73.9439 106.941 70.6679 105.094 67.7271C103.247 64.7864 100.837 62.2389 98.0005 60.2311L67.1271 104.477C72.8923 108.304 79.8944 109.812 86.7272 108.697Z" fill="url(#paint1_linear_112_680)"/>
<path d="M115.679 83.2494L137.329 50.896H163.718L126.696 105.373L152.317 161H127.721L111.195 125.194L88.0083 161H62.3873L101.587 103.071L115.679 83.2494Z" fill="url(#paint2_linear_112_680)"/>
<path d="M225.337 50.896C249.677 50.896 262.872 61.7657 262.872 82.7379C263.241 89.0665 261.418 95.3293 257.709 100.475C254.001 105.621 248.632 109.337 242.503 110.999C248.78 113.301 252.367 118.16 252.367 128.135C252.367 131.844 250.958 144.248 250.958 147.956C250.958 154.35 250.958 156.396 256.21 158.059V161H229.436C228.357 158.494 227.791 155.799 227.771 153.071C227.771 146.55 228.924 137.087 228.924 133.506C228.924 123.148 225.465 118.416 213.551 118.416H193.183L185.881 161H162.95L182.55 50.896H225.337ZM196.385 100.002H219.7C222.28 100.323 224.897 100.104 227.387 99.3592C229.877 98.6142 232.183 97.3595 234.16 95.675C236.137 93.9905 237.74 91.9132 238.868 89.5756C239.996 87.2381 240.623 84.6915 240.71 82.0985C240.71 72.7633 233.92 69.3106 224.825 69.3106H201.766L196.385 100.002Z" fill="url(#paint3_linear_112_680)"/>
</g>
<defs>
<linearGradient id="paint0_linear_112_680" x1="-0.122256" y1="0.930881" x2="40.0021" y2="170.988" gradientUnits="userSpaceOnUse">
<stop stop-color="#9599E2"/>
<stop offset="1" stop-color="#8BC6EC"/>
</linearGradient>
<linearGradient id="paint1_linear_112_680" x1="67.1271" y1="60.6889" x2="80.2417" y2="115.922" gradientUnits="userSpaceOnUse">
<stop stop-color="#AE95E2"/>
<stop offset="1" stop-color="#6691FF"/>
</linearGradient>
<linearGradient id="paint2_linear_112_680" x1="62.3873" y1="51.9282" x2="90.2387" y2="177.321" gradientUnits="userSpaceOnUse">
<stop stop-color="#AE95E2"/>
<stop offset="1" stop-color="#6691FF"/>
</linearGradient>
<linearGradient id="paint3_linear_112_680" x1="162.95" y1="51.9282" x2="191.144" y2="177.159" gradientUnits="userSpaceOnUse">
<stop stop-color="#AE95E2"/>
<stop offset="1" stop-color="#6691FF"/>
</linearGradient>
<clipPath id="clip0_112_680">
<rect width="263" height="161" fill="white"/>
</clipPath>
</defs>
</svg>
