<svg width="106" height="71" viewBox="0 0 106 71" fill="none" xmlns="http://www.w3.org/2000/svg">
<path d="M60.7778 52.1417H42.2914C42.0431 52.1413 41.803 52.0519 41.6137 51.8894C41.4244 51.7269 41.2982 51.5018 41.2575 51.2541L37.9553 31.0889C37.8148 30.2722 37.3608 29.5448 36.6923 29.0653C36.0238 28.5857 35.195 28.3929 34.3866 28.5287C33.5781 28.6645 32.8555 29.1181 32.3762 29.7905C31.8969 30.4629 31.6998 31.2997 31.8279 32.1184L35.7071 55.7938C35.8277 56.5279 36.2021 57.1949 36.7635 57.6759C37.325 58.157 38.037 58.4208 38.7728 58.4203H60.886C61.2987 58.4204 61.7071 58.3373 62.0877 58.1759C62.4682 58.0145 62.8131 57.778 63.1022 57.4803C63.3914 57.1825 63.619 56.8295 63.7717 56.4418C63.9244 56.0541 63.9993 55.6395 63.9918 55.2222C63.9585 54.3865 63.6039 53.5968 63.0037 53.0215C62.4034 52.4461 61.6047 52.1305 60.7778 52.1417Z" fill="url(#paint0_linear_178_697)"/>
<path d="M46.9521 15.7998C51.2658 15.7998 54.7627 12.2629 54.7627 7.89989C54.7627 3.5369 51.2658 0 46.9521 0C42.6385 0 39.1416 3.5369 39.1416 7.89989C39.1416 12.2629 42.6385 15.7998 46.9521 15.7998Z" fill="url(#paint1_linear_178_697)"/>
<path d="M71.9747 38.9117C71.755 39.8795 71.2205 40.7446 70.4568 41.3685C69.6931 41.9925 68.7445 42.3392 67.7629 42.353H67.6707L54.2137 42.2354C53.0049 42.2262 51.8369 41.7921 50.9099 41.0075C49.9828 40.2229 49.3544 39.1367 49.1322 37.9349L47.2687 28.1664C47.2421 28.0267 47.2715 27.882 47.3505 27.7641C47.4294 27.6463 47.5513 27.565 47.6895 27.5382C47.8277 27.5113 47.9707 27.541 48.0872 27.6208C48.2037 27.7007 48.2841 27.824 48.3107 27.9638L50.1501 37.7403C50.3291 38.7031 50.8328 39.5732 51.5753 40.2023C52.3179 40.8313 53.2532 41.1803 54.2217 41.1897L67.6667 41.3072H67.7148C68.3257 41.3093 68.9251 41.1395 69.446 40.8168C70.488 40.152 70.7805 39.5643 70.7685 38.3848C70.7424 37.4823 70.3695 36.6256 69.729 35.9966C69.0885 35.3677 68.2308 35.0161 67.3381 35.0165L57.4196 34.4207C57.0714 34.4155 56.736 34.2875 56.4711 34.0589C56.2063 33.8302 56.0286 33.5152 55.9689 33.1682L54.2617 23.2943L53.9772 21.6041C53.7361 20.2626 53.0373 19.0491 52.0026 18.1751C50.9679 17.3011 49.6628 16.822 48.3147 16.8212H44.9845C44.1497 16.8217 43.325 17.0059 42.5676 17.3609C41.8102 17.716 41.1383 18.2335 40.5984 18.8775C40.0585 19.5215 39.6636 20.2766 39.4411 21.0904C39.2186 21.9042 39.1739 22.7572 39.3099 23.5902L42.8685 46.4225C43.0097 47.2878 43.4495 48.0745 44.1098 48.6429C44.7701 49.2113 45.6082 49.5247 46.4752 49.5273H64.4247C64.7265 49.5273 65.016 49.6486 65.2294 49.8645C65.4429 50.0804 65.5628 50.3732 65.5628 50.6785L67.5184 66.7215C67.5184 67.7126 67.9077 68.6632 68.6006 69.364C69.2936 70.0649 70.2334 70.4586 71.2133 70.4586H71.3095C72.2895 70.4586 73.2292 70.0649 73.9222 69.364C74.6151 68.6632 75.0044 67.7126 75.0044 66.7215V44.3472C75.0061 43.2538 74.728 42.1785 74.1971 41.2261C73.6662 40.2736 72.9006 39.4763 71.9747 38.9117Z" fill="url(#paint2_linear_178_697)"/>
<path fill-rule="evenodd" clip-rule="evenodd" d="M92.1421 54.7989L76.2322 38.889C75.2559 37.9127 75.2559 36.3298 76.2322 35.3534L92.1421 19.4435C93.1184 18.4672 94.7014 18.4672 95.6777 19.4435C96.654 20.4199 96.654 22.0028 95.6777 22.9791L84.0355 34.6212H103C104.381 34.6212 105.5 35.7405 105.5 37.1212C105.5 38.5019 104.381 39.6212 103 39.6212H84.0355L95.6777 51.2633C96.654 52.2397 96.654 53.8226 95.6777 54.7989C94.7014 55.7752 93.1184 55.7752 92.1421 54.7989Z" fill="url(#paint3_linear_178_697)"/>
<path fill-rule="evenodd" clip-rule="evenodd" d="M13.8579 19.696L29.7678 35.6059C30.7441 36.5822 30.7441 38.1651 29.7678 39.1414L13.8579 55.0513C12.8816 56.0277 11.2986 56.0277 10.3223 55.0513C9.34602 54.075 9.34602 52.4921 10.3223 51.5158L21.9645 39.8737L3 39.8737C1.61929 39.8737 0.5 38.7544 0.5 37.3737C0.5 35.993 1.61929 34.8737 3 34.8737L21.9645 34.8737L10.3223 23.2315C9.34602 22.2552 9.34602 20.6723 10.3223 19.696C11.2986 18.7197 12.8816 18.7197 13.8579 19.696Z" fill="url(#paint4_linear_178_697)"/>
<defs>
<linearGradient id="paint0_linear_178_697" x1="0.499998" y1="0.66055" x2="11.8366" y2="83.3064" gradientUnits="userSpaceOnUse">
<stop stop-color="#AE95E2"/>
<stop offset="1" stop-color="#6691FF"/>
</linearGradient>
<linearGradient id="paint1_linear_178_697" x1="0.499998" y1="0.66055" x2="11.8366" y2="83.3064" gradientUnits="userSpaceOnUse">
<stop stop-color="#AE95E2"/>
<stop offset="1" stop-color="#6691FF"/>
</linearGradient>
<linearGradient id="paint2_linear_178_697" x1="0.499998" y1="0.66055" x2="11.8366" y2="83.3064" gradientUnits="userSpaceOnUse">
<stop stop-color="#AE95E2"/>
<stop offset="1" stop-color="#6691FF"/>
</linearGradient>
<linearGradient id="paint3_linear_178_697" x1="0.499998" y1="0.66055" x2="11.8366" y2="83.3064" gradientUnits="userSpaceOnUse">
<stop stop-color="#AE95E2"/>
<stop offset="1" stop-color="#6691FF"/>
</linearGradient>
<linearGradient id="paint4_linear_178_697" x1="0.499998" y1="0.66055" x2="11.8366" y2="83.3064" gradientUnits="userSpaceOnUse">
<stop stop-color="#AE95E2"/>
<stop offset="1" stop-color="#6691FF"/>
</linearGradient>
</defs>
</svg>
