<svg width="247" height="137" viewBox="0 0 247 137" fill="none" xmlns="http://www.w3.org/2000/svg">
<path d="M86.287 49.1725C88.58 50.0814 90.4805 50.8148 92.3604 51.5843C94.3436 52.4054 96.2854 53.3454 98.3047 54.0736C99.1552 54.3598 99.9337 54.8264 100.587 55.4415C101.24 56.0565 101.753 56.8055 102.09 57.6371C104.022 61.9494 107.461 63.9171 112.161 63.8344C116.778 63.7363 121.008 60.7358 121.943 56.1755C122.174 54.8359 122.703 53.5652 123.49 52.4569C124.278 51.3487 125.304 50.4311 126.492 49.7716C128.104 48.7903 129.617 47.6386 131.141 46.5128C133.605 44.6509 136.443 43.3437 139.461 42.6807C142.562 42.0437 145.351 40.3639 147.365 37.9208C149.379 35.4778 150.495 32.4188 150.528 29.2531C150.605 22.2758 146.536 16.8583 139.822 14.9578C132.349 12.8558 124.184 17.3489 122.444 25.1215C120.977 31.6545 116.504 36.2148 113.08 41.4929C113.038 41.5689 112.976 41.6315 112.9 41.6736C109.914 42.8615 106.836 44.6122 103.603 43.4606C97.5404 41.2863 91.6477 38.6524 85.6879 36.1993C85.4075 36.0547 85.1427 35.8817 84.8977 35.6828C84.8409 21.7387 97.654 1.26155 121.746 0.0478929C141.206 -0.928195 159.69 13.1037 162.009 34.0819C164.736 58.7578 146.665 75.1963 127.799 77.2621C105.783 79.6739 89.6284 63.9532 86.287 49.1725Z" fill="url(#paint0_linear_19_311)"/>
<path d="M157.562 136.08L153.56 135.709V132.687C153.56 128.039 153.56 123.417 153.56 118.785C153.575 117.757 153.509 116.729 153.363 115.712C152.609 111.038 149.123 109.251 144.852 111.456C142.027 112.923 140.204 115.071 140.375 118.599C140.576 123.314 140.426 128.039 140.426 132.76V135.807H136.253C136.181 134.774 136.067 133.86 136.062 132.946C136.062 128.137 136.062 123.335 136.062 118.526C136.062 117.927 136.062 117.323 136.062 116.724C135.969 114.503 135.608 112.267 133.356 111.275C132.29 110.794 131.118 110.592 129.953 110.69C128.787 110.787 127.665 111.181 126.694 111.833C124.205 113.414 122.764 115.448 122.872 118.619C123.037 123.267 122.914 127.884 122.914 132.522V135.678L118.699 136.111C118.41 126.382 118.591 117.003 118.565 107.428H121.922L122.753 111.079C125.052 108.27 127.84 106.72 131.203 106.695C134.714 106.669 137.477 108.244 139.254 111.559C141.728 109.112 144.15 107.097 147.517 106.746C152.165 106.266 157.397 108.869 157.536 114.622C157.695 121.054 157.832 127.483 157.949 133.911C157.876 134.643 157.746 135.368 157.562 136.08Z" fill="url(#paint1_linear_19_311)"/>
<path d="M237.477 120.401C240.576 125.519 243.427 130.291 246.288 135.073C246.355 135.187 246.262 135.399 246.216 135.807H241.929L233.082 121.315H223.642V135.812L219.784 136.055C219.045 133.901 218.885 101.236 219.536 98.1576C220.152 97.9857 220.783 97.8767 221.421 97.8323C226.317 97.9562 231.233 97.7393 236.093 98.3745C242.373 99.1957 245.276 103.209 245.007 109.778C244.795 114.844 242.28 118.304 237.477 120.401ZM223.683 116.75C227.758 116.75 231.528 116.936 235.267 116.672C237.302 116.528 238.918 115.071 239.662 113.093C241.516 108.141 240.524 101.974 232.896 101.979C230.5 101.979 228.099 101.742 225.697 101.664C225.02 101.696 224.346 101.782 223.683 101.923V116.75Z" fill="url(#paint2_linear_19_311)"/>
<path d="M25.3408 101.065L23.7553 103.957C22.5107 103.441 21.4416 102.955 20.3571 102.516C17.0157 101.158 13.6433 100.554 10.0281 101.577C8.93138 101.843 7.93692 102.426 7.16774 103.252C6.39855 104.078 5.88837 105.112 5.70028 106.225C5.18383 108.662 6.43365 110.454 8.40648 111.585C10.777 112.949 13.3179 114.018 15.7865 115.2C17.718 116.13 19.7115 116.956 21.5811 117.994C29.1625 122.229 27.3033 131.469 21.2299 134.655C19.3233 135.613 17.248 136.191 15.1203 136.354C10.0953 136.767 5.21998 136.096 0.582275 133.111L2.02834 129.806C3.16453 130.214 4.05282 130.498 4.91529 130.838C8.2859 132.178 11.935 132.664 15.5386 132.254C19.5463 131.871 22.0046 129.341 21.9116 125.896C21.8548 123.644 20.5585 122.198 18.7819 121.207C17.0054 120.215 15.0428 119.497 13.1785 118.624C10.7666 117.504 8.31351 116.455 5.98949 115.18C2.37435 113.202 0.783695 110.041 1.23301 105.966C1.68232 101.892 4.15094 99.4332 7.84871 98.2196C13.4573 96.3707 18.8594 97.1867 24.0032 99.9652C24.4812 100.291 24.9289 100.659 25.3408 101.065Z" fill="url(#paint3_linear_19_311)"/>
<path d="M57.0198 123.722C56.8442 128.737 60.1185 132.403 64.6632 132.775C67.6792 133.102 70.7206 132.452 73.3396 130.921C73.9128 130.575 74.5222 130.286 75.3175 129.888L77.2904 132.259C76.6718 132.869 76.0108 133.435 75.3124 133.953C71.7928 136.214 67.5701 137.115 63.4341 136.488C59.1062 135.915 55.6099 133.689 53.823 129.589C51.0393 123.2 51.0858 116.905 55.5582 111.182C58.817 107.025 63.305 105.925 68.2732 107.051C72.7353 108.084 75.5913 111.033 77.0528 115.283C77.9665 117.939 78.1677 120.788 77.6364 123.546C74.1555 123.851 70.6644 123.644 67.1887 123.686C63.713 123.727 60.3974 123.722 57.0198 123.722ZM73.7527 119.756C73.4532 112.422 68.2319 109.943 64.2242 110.428C59.4987 110.991 56.2451 115.118 57.0559 119.756H73.7527Z" fill="url(#paint4_linear_19_311)"/>
<path d="M207.058 97.8013L211.738 98.0182C206.878 110.878 202.173 123.324 197.432 135.889H191.952C187.082 123.329 182.326 110.826 177.528 98.0698H182.264C186.395 109.065 190.465 119.941 194.545 130.818H195.025L207.058 97.8013Z" fill="url(#paint5_linear_19_311)"/>
<path d="M103.944 120.468C103.944 118.402 104.12 116.755 103.908 115.175C103.454 111.756 100.417 109.835 96.2751 110.527C93.7651 110.95 91.3482 111.895 88.5284 112.716L87.0513 110.49C90.6251 107.552 94.4624 106.359 98.7334 106.751C101.099 106.963 103.516 107.108 105.447 108.931C107.797 111.141 108.277 113.971 108.36 116.915C108.468 121.047 108.396 125.178 108.406 129.274V131.995L110.989 133.648L110.188 135.786C107.606 136.623 105.912 135.833 104.786 133.979C102.498 134.81 100.396 135.719 98.2118 136.334C95.7483 137.026 93.2539 136.69 90.8472 135.889C87.4283 134.748 85.6827 132.429 85.4607 128.819C85.2541 125.364 86.6485 122.901 89.9176 121.424C92.9323 120.11 96.2524 119.66 99.5081 120.122C100.82 120.287 102.168 120.334 103.944 120.468ZM103.743 124.512C101.326 123.562 94.9323 123.391 92.7787 124.181C90.7129 124.93 89.7782 126.196 89.7678 128.143C89.7678 130.234 90.7439 131.835 92.7891 132.372C94.2763 132.738 95.8104 132.875 97.339 132.78C102.452 132.529 104.586 129.773 103.743 124.512Z" fill="url(#paint6_linear_19_311)"/>
<path d="M40.3644 106.973L46.6857 107.361V110.945L40.4883 111.389C39.5845 114.927 39.9719 130.632 41.232 132.729L46.035 132.274C46.288 133.07 46.5514 133.911 46.8045 134.671C44.3204 136.953 39.8892 137.382 37.6788 135.404C36.6958 134.478 36.0673 133.238 35.9022 131.897C35.5717 127.549 35.5356 123.174 35.4374 118.805C35.3806 116.269 35.4374 113.729 35.4374 110.971H30.8772V107.505L34.9726 106.917C36.0055 104.51 35.1689 100.755 39.5329 100.161C39.8118 102.527 40.07 104.613 40.3644 106.973Z" fill="url(#paint7_linear_19_311)"/>
<path d="M146.102 28.5972C146.174 33.9579 141.728 38.6214 136.444 38.7196C133.79 38.7336 131.237 37.7023 129.337 35.8487C127.437 33.9951 126.343 31.468 126.291 28.8141C126.198 23.7839 130.794 19.11 135.974 18.9654C141.154 18.8208 146.035 23.3759 146.102 28.5972ZM143.267 28.7263C143.225 26.8619 142.45 25.0891 141.11 23.7919C139.77 22.4946 137.974 21.7774 136.109 21.7955C134.239 21.8348 132.46 22.6062 131.153 23.9438C129.846 25.2814 129.117 27.0784 129.121 28.9484C129.199 30.817 129.994 32.5837 131.341 33.8819C132.687 35.1801 134.481 35.9101 136.351 35.9204C140.091 35.8946 143.318 32.5428 143.267 28.7005V28.7263Z" fill="url(#paint8_linear_19_311)"/>
<path d="M109.253 45.6968C112.703 43.853 117.248 45.6968 119.18 49.4462C121.328 53.6191 119.696 58.3807 115.564 60.6376C112.435 62.3367 106.268 61.4484 104.672 56.8624C105.762 57.2291 106.589 57.5493 107.435 57.7868C108.641 58.2149 109.887 58.5212 111.154 58.7009C114.077 58.9024 116.293 57.3788 116.902 54.9825C117.661 52.0078 116.571 49.3016 113.989 47.9846C112.497 47.1893 110.947 46.5179 109.253 45.6968Z" fill="url(#paint9_linear_19_311)"/>
<path d="M164.963 104.179C167.173 104.179 169.172 106.101 169.182 108.223C169.149 109.304 168.711 110.333 167.956 111.107C167.2 111.88 166.182 112.342 165.102 112.401C164.022 112.37 162.992 111.94 162.21 111.194C161.428 110.449 160.95 109.44 160.867 108.363C160.821 106.307 162.907 104.169 164.963 104.179ZM162.112 107.996C162.059 108.38 162.085 108.771 162.19 109.144C162.295 109.518 162.477 109.865 162.723 110.165C162.969 110.465 163.274 110.71 163.619 110.886C163.965 111.062 164.343 111.165 164.73 111.188C166.471 111.353 167.829 110.305 168.01 108.662C168.06 108.257 168.028 107.846 167.915 107.453C167.802 107.061 167.611 106.695 167.354 106.378C167.096 106.061 166.777 105.8 166.416 105.609C166.055 105.419 165.659 105.303 165.252 105.269C164.474 105.215 163.707 105.472 163.118 105.983C162.529 106.494 162.168 107.218 162.112 107.996Z" fill="url(#paint10_linear_19_311)"/>
<path d="M161.115 11.1619C160.671 11.7454 160.222 12.3239 159.494 13.269C158.91 12.3032 158.564 11.7196 158.053 10.9036L160.635 10.6764L161.115 11.1619Z" fill="url(#paint11_linear_19_311)"/>
<path d="M156.798 12.2826C156.731 11.6732 156.663 11.0637 156.601 10.4543L157.221 10.4233V12.2516L156.798 12.2826Z" fill="url(#paint12_linear_19_311)"/>
<path d="M166.367 110.243L165.035 109.359L163.656 110.237V106.064L166.6 106.581C166.507 108.022 166.445 109.003 166.367 110.243ZM165.195 107.454L164.854 107.624C164.921 107.65 165.014 107.722 165.056 107.696C165.097 107.671 165.133 107.567 165.174 107.454H165.195Z" fill="url(#paint13_linear_19_311)"/>
<defs>
<linearGradient id="paint0_linear_19_311" x1="84.8975" y1="0.726644" x2="103.099" y2="89.6261" gradientUnits="userSpaceOnUse">
<stop stop-color="#AE95E2"/>
<stop offset="1" stop-color="#6691FF"/>
</linearGradient>
<linearGradient id="paint1_linear_19_311" x1="118.533" y1="106.966" x2="123.775" y2="141.326" gradientUnits="userSpaceOnUse">
<stop stop-color="#AE95E2"/>
<stop offset="1" stop-color="#6691FF"/>
</linearGradient>
<linearGradient id="paint2_linear_19_311" x1="219.128" y1="98.1906" x2="231.255" y2="140.382" gradientUnits="userSpaceOnUse">
<stop stop-color="#AE95E2"/>
<stop offset="1" stop-color="#6691FF"/>
</linearGradient>
<linearGradient id="paint3_linear_19_311" x1="0.582275" y1="97.5939" x2="13.8011" y2="140.404" gradientUnits="userSpaceOnUse">
<stop stop-color="#AE95E2"/>
<stop offset="1" stop-color="#6691FF"/>
</linearGradient>
<linearGradient id="paint4_linear_19_311" x1="51.9282" y1="106.918" x2="59.9625" y2="140.927" gradientUnits="userSpaceOnUse">
<stop stop-color="#AE95E2"/>
<stop offset="1" stop-color="#6691FF"/>
</linearGradient>
<linearGradient id="paint5_linear_19_311" x1="177.528" y1="98.1584" x2="187.377" y2="141.434" gradientUnits="userSpaceOnUse">
<stop stop-color="#AE95E2"/>
<stop offset="1" stop-color="#6691FF"/>
</linearGradient>
<linearGradient id="paint6_linear_19_311" x1="85.4407" y1="106.96" x2="93.5927" y2="140.888" gradientUnits="userSpaceOnUse">
<stop stop-color="#AE95E2"/>
<stop offset="1" stop-color="#6691FF"/>
</linearGradient>
<linearGradient id="paint7_linear_19_311" x1="30.8772" y1="100.504" x2="47.6358" y2="136.275" gradientUnits="userSpaceOnUse">
<stop stop-color="#AE95E2"/>
<stop offset="1" stop-color="#6691FF"/>
</linearGradient>
<linearGradient id="paint8_linear_19_311" x1="126.29" y1="19.1473" x2="130.911" y2="41.8165" gradientUnits="userSpaceOnUse">
<stop stop-color="#AE95E2"/>
<stop offset="1" stop-color="#6691FF"/>
</linearGradient>
<linearGradient id="paint9_linear_19_311" x1="104.672" y1="45.129" x2="108.763" y2="63.9135" gradientUnits="userSpaceOnUse">
<stop stop-color="#AE95E2"/>
<stop offset="1" stop-color="#6691FF"/>
</linearGradient>
<linearGradient id="paint10_linear_19_311" x1="160.867" y1="104.256" x2="162.775" y2="113.696" gradientUnits="userSpaceOnUse">
<stop stop-color="#AE95E2"/>
<stop offset="1" stop-color="#6691FF"/>
</linearGradient>
<linearGradient id="paint11_linear_19_311" x1="158.053" y1="10.7007" x2="158.573" y2="13.7089" gradientUnits="userSpaceOnUse">
<stop stop-color="#AE95E2"/>
<stop offset="1" stop-color="#6691FF"/>
</linearGradient>
<linearGradient id="paint12_linear_19_311" x1="156.601" y1="10.4408" x2="157.592" y2="12.0554" gradientUnits="userSpaceOnUse">
<stop stop-color="#AE95E2"/>
<stop offset="1" stop-color="#6691FF"/>
</linearGradient>
<linearGradient id="paint13_linear_19_311" x1="163.656" y1="106.104" x2="164.992" y2="110.709" gradientUnits="userSpaceOnUse">
<stop stop-color="#AE95E2"/>
<stop offset="1" stop-color="#6691FF"/>
</linearGradient>
</defs>
</svg>
