<svg width="35" height="71" viewBox="0 0 35 71" fill="none" xmlns="http://www.w3.org/2000/svg">
<path d="M24.6327 69.0647L18.2835 67.3733C18.4031 68.0638 18.7155 68.7049 19.1834 69.2207C19.6514 69.7366 20.2554 70.1053 20.9238 70.2834C21.5922 70.4614 22.2968 70.4413 22.9542 70.2253C23.6116 70.0092 24.1942 69.6065 24.6327 69.0647Z" fill="url(#paint0_linear_178_692)"/>
<path d="M17.436 12.9109C18.6945 12.9109 19.9247 12.5323 20.9711 11.8229C22.0175 11.1136 22.8331 10.1054 23.3147 8.92583C23.7963 7.74625 23.9223 6.44828 23.6768 5.19605C23.4313 3.94382 22.8253 2.79357 21.9354 1.89076C21.0455 0.987949 19.9117 0.373127 18.6773 0.124043C17.443 -0.125042 16.1636 0.00279644 15.0009 0.491393C13.8382 0.97999 12.8444 1.8074 12.1452 2.86899C11.446 3.93058 11.0728 5.17868 11.0728 6.45544C11.0728 8.16753 11.7432 9.8095 12.9366 11.0201C14.1299 12.2308 15.7484 12.9109 17.436 12.9109Z" fill="url(#paint1_linear_178_692)"/>
<path d="M18.1864 58.6627L24.3411 56.9713L18.1864 55.2799V58.6627Z" fill="url(#paint2_linear_178_692)"/>
<path d="M24.1049 63.0039L18.1864 61.383V64.6389L24.1049 63.0039Z" fill="url(#paint3_linear_178_692)"/>
<path d="M25.4943 52.2073L19.2423 53.9268L25.4943 55.6464V52.2073Z" fill="url(#paint4_linear_178_692)"/>
<path d="M19.2423 60.0299L25.4943 61.7495V58.3104L19.2423 60.0299Z" fill="url(#paint5_linear_178_692)"/>
<path d="M25.4943 45.9351L19.2423 47.6547L25.4943 49.3883V45.9351Z" fill="url(#paint6_linear_178_692)"/>
<path d="M33.6912 68.064H33.2327L32.6075 43.3698C32.775 43.3782 32.9417 43.3419 33.0911 43.2644C33.2404 43.187 33.3671 43.0712 33.4585 42.9285C33.5499 42.7859 33.6028 42.6214 33.6119 42.4515C33.6211 42.2816 33.5861 42.1123 33.5106 41.9604C33.8152 41.8164 34.0713 41.5846 34.2468 41.2938C34.4222 41.0029 34.5093 40.6661 34.497 40.3254C34.3997 37.7742 34.6915 36.6325 33.6356 35.8714C33.2051 32.2635 32.5556 28.686 31.6905 25.1593C28.9119 19.7469 27.1474 14.7855 23.5074 14.5741H10.7534C9.80116 14.6664 8.88987 15.0123 8.11164 15.5765C7.33342 16.1408 6.71587 16.9036 6.32144 17.7877L3.13988 25.1734C2.2653 28.698 1.6156 32.2761 1.19482 35.8855C0.138934 36.6466 0.430688 37.7883 0.333435 40.3395C0.321155 40.6802 0.408189 41.017 0.583642 41.3078C0.759095 41.5987 1.01518 41.8305 1.31986 41.9745C1.24431 42.1263 1.20936 42.2957 1.2185 42.4656C1.22764 42.6355 1.28055 42.8 1.37195 42.9426C1.46335 43.0853 1.59003 43.2011 1.73936 43.2785C1.88868 43.356 2.05542 43.3923 2.22292 43.3839L1.59772 68.0781H1.18093C0.870116 68.0781 0.571832 68.2024 0.350761 68.424C0.129689 68.6456 0.00365658 68.9468 0 69.2621C0 70.7984 1.75055 70.4601 3.59836 70.4601C4.98768 70.4601 5.43226 68.0781 3.20934 68.0781L3.82065 43.4403C3.98182 43.4644 4.14638 43.4458 4.29837 43.3863C4.45036 43.3268 4.58461 43.2285 4.68807 43.1008C4.79153 42.9732 4.8607 42.8205 4.88886 42.6577C4.91701 42.495 4.90319 42.3275 4.84875 42.1718C5.22399 42.0999 5.56471 41.9027 5.81653 41.6114C6.06835 41.3202 6.21675 40.9518 6.23807 40.565C6.33533 37.9997 6.69655 36.9144 5.72402 36.0828C6.37701 34.321 6.27976 29.3032 9.25292 24.1163V66.5559C9.22896 67.539 9.59096 68.4915 10.2593 69.2039C10.9276 69.9163 11.8475 70.3301 12.8165 70.3544C13.7856 70.3787 14.7245 70.0115 15.4267 69.3335C16.1289 68.6555 16.5368 67.7222 16.5608 66.7391V41.467H18.2558V46.3016L25.5775 44.3001V23.7639C28.8424 29.2609 28.3562 33.729 29.287 36.0687C28.3145 36.9003 28.6757 37.9856 28.773 40.5509C28.7943 40.9377 28.9427 41.3061 29.1945 41.5973C29.4463 41.8886 29.787 42.0859 30.1623 42.1577C30.1078 42.3135 30.094 42.4809 30.1222 42.6436C30.1503 42.8064 30.2195 42.9591 30.323 43.0867C30.4264 43.2144 30.5607 43.3127 30.7127 43.3722C30.8646 43.4317 31.0292 43.4503 31.1904 43.4262L31.8017 68.064C29.3843 68.064 29.94 70.4742 31.3293 70.4742H33.6912C33.8561 70.4925 34.0229 70.4752 34.1808 70.4237C34.3387 70.3721 34.4841 70.2874 34.6076 70.1751C34.7311 70.0627 34.8298 69.9252 34.8974 69.7716C34.9651 69.6179 35 69.4515 35 69.2832C35 69.1149 34.9651 68.9485 34.8974 68.7949C34.8298 68.6412 34.7311 68.5037 34.6076 68.3914C34.4841 68.279 34.3387 68.1943 34.1808 68.1427C34.0229 68.0912 33.8561 68.074 33.6912 68.0922V68.064Z" fill="url(#paint7_linear_178_692)"/>
<path d="M18.1864 49.0219V52.5597L24.6328 50.7978L18.1864 49.0219Z" fill="url(#paint8_linear_178_692)"/>
<path d="M19.2423 65.9921L25.3692 67.6553C25.5148 66.5247 25.5613 65.3832 25.5082 64.2443L19.2423 65.9921Z" fill="url(#paint9_linear_178_692)"/>
<defs>
<linearGradient id="paint0_linear_178_692" x1="-7.33211e-07" y1="0.66086" x2="29.6556" y2="72.6921" gradientUnits="userSpaceOnUse">
<stop stop-color="#AE95E2"/>
<stop offset="1" stop-color="#6691FF"/>
</linearGradient>
<linearGradient id="paint1_linear_178_692" x1="-7.33211e-07" y1="0.66086" x2="29.6556" y2="72.6921" gradientUnits="userSpaceOnUse">
<stop stop-color="#AE95E2"/>
<stop offset="1" stop-color="#6691FF"/>
</linearGradient>
<linearGradient id="paint2_linear_178_692" x1="-7.33211e-07" y1="0.66086" x2="29.6556" y2="72.6921" gradientUnits="userSpaceOnUse">
<stop stop-color="#AE95E2"/>
<stop offset="1" stop-color="#6691FF"/>
</linearGradient>
<linearGradient id="paint3_linear_178_692" x1="-7.33211e-07" y1="0.66086" x2="29.6556" y2="72.6921" gradientUnits="userSpaceOnUse">
<stop stop-color="#AE95E2"/>
<stop offset="1" stop-color="#6691FF"/>
</linearGradient>
<linearGradient id="paint4_linear_178_692" x1="-7.33211e-07" y1="0.66086" x2="29.6556" y2="72.6921" gradientUnits="userSpaceOnUse">
<stop stop-color="#AE95E2"/>
<stop offset="1" stop-color="#6691FF"/>
</linearGradient>
<linearGradient id="paint5_linear_178_692" x1="-7.33211e-07" y1="0.66086" x2="29.6556" y2="72.6921" gradientUnits="userSpaceOnUse">
<stop stop-color="#AE95E2"/>
<stop offset="1" stop-color="#6691FF"/>
</linearGradient>
<linearGradient id="paint6_linear_178_692" x1="-7.33211e-07" y1="0.66086" x2="29.6556" y2="72.6921" gradientUnits="userSpaceOnUse">
<stop stop-color="#AE95E2"/>
<stop offset="1" stop-color="#6691FF"/>
</linearGradient>
<linearGradient id="paint7_linear_178_692" x1="-7.33211e-07" y1="0.66086" x2="29.6556" y2="72.6921" gradientUnits="userSpaceOnUse">
<stop stop-color="#AE95E2"/>
<stop offset="1" stop-color="#6691FF"/>
</linearGradient>
<linearGradient id="paint8_linear_178_692" x1="-7.33211e-07" y1="0.66086" x2="29.6556" y2="72.6921" gradientUnits="userSpaceOnUse">
<stop stop-color="#AE95E2"/>
<stop offset="1" stop-color="#6691FF"/>
</linearGradient>
<linearGradient id="paint9_linear_178_692" x1="-7.33211e-07" y1="0.66086" x2="29.6556" y2="72.6921" gradientUnits="userSpaceOnUse">
<stop stop-color="#AE95E2"/>
<stop offset="1" stop-color="#6691FF"/>
</linearGradient>
</defs>
</svg>
