<svg width="182" height="193" viewBox="0 0 182 193" fill="none" xmlns="http://www.w3.org/2000/svg">
<path d="M15.0665 50.3141C16.8952 44.3702 18.6632 38.5881 20.5162 32.5593L77.0278 59.3028C81.9111 54.1756 88.0971 53.1729 94.6392 53.375C95.8519 53.4179 97.0349 53.7611 98.0821 54.3738C99.4173 55.1825 100.23 54.7781 101.274 53.925C115.208 42.765 129.155 31.6252 143.116 20.5057C143.901 19.879 144.694 19.2724 145.669 18.5082L154.294 35.8587C150.775 38.6892 147.323 41.4751 143.856 44.2368C133.067 52.8359 122.261 61.4283 111.437 70.0139C110.252 70.956 109.629 71.7728 110.037 73.5115C112.344 83.3048 114.488 93.1385 116.705 103.126H118.865C131.067 103.126 143.274 103.089 155.476 103.154C158.486 103.154 161.544 103.284 164.158 105.2C167.14 107.376 168.742 110.271 169.543 113.861C173.459 131.414 177.485 148.942 181.498 166.471C182.271 169.847 182.214 173.139 180.855 176.353C178.549 181.812 172.824 183.178 168.277 179.382C164.676 176.377 163.604 172.172 162.641 167.858C159.534 153.908 156.39 139.966 153.21 126.032C153.099 125.655 152.963 125.285 152.806 124.924H150.459C132.997 124.924 115.536 124.924 98.074 124.924C92.0296 124.924 87.7006 122.498 84.5166 116.934C80.7581 110.343 79.961 103.094 78.1445 96.0538C76.7891 90.7973 75.6604 85.4721 74.6004 80.1428C74.3212 78.7478 73.6739 78.1211 72.4804 77.559C54.1044 68.871 35.7473 60.1748 17.409 51.4706C16.6848 51.1269 15.9728 50.7791 15.0665 50.3141Z" fill="url(#paint0_linear_59_3474)"/>
<path d="M66.6261 80.9474C67.3786 84.1175 68.1554 87.0127 68.6773 89.9684C68.7663 90.4577 67.8682 91.3675 67.233 91.7071C57.6283 96.7655 50.3418 104.076 45.5839 113.845C32.1438 141.413 48.0114 174.833 77.8572 181.929C101.853 187.63 125.861 175.666 135.227 153.305C137.375 148.182 138.714 142.861 138.799 137.269C138.799 136.675 138.896 136.08 138.965 135.284H152.17C152.377 140.186 151.714 145.087 150.212 149.759C143.925 170.037 130.21 183.288 110.276 189.498C86.05 197.043 63.8103 192.454 45.0216 175.12C31.715 162.848 25.6544 147.119 27.7096 129.061C30.1371 107.841 42.1207 93.0738 60.8851 83.4584C62.6612 82.5487 64.5506 81.8491 66.6261 80.9474Z" fill="url(#paint1_linear_59_3474)"/>
<path d="M90.1928 12.2408C86.4707 13.6601 83.0803 14.8731 79.7506 16.2317C73.5808 18.7549 71.6793 26.0614 75.7817 31.2856C77.0491 32.8783 78.7916 34.0255 80.7561 34.5607C82.7205 35.0959 84.8046 34.9911 86.7054 34.2616C90.8563 32.7129 94.9911 31.1157 99.1381 29.5469C99.749 29.3164 100.388 29.1425 101.351 28.8393C101.201 30.6144 101.181 32.1549 100.89 33.6389C100.795 33.9684 100.629 34.2732 100.404 34.5322C100.179 34.7913 99.9002 34.9983 99.5872 35.139C97.451 35.9032 95.246 36.4693 93.0775 37.1607C92.6051 37.351 92.1491 37.5795 91.7141 37.8441C92.0054 38.3374 92.1793 39.0571 92.6122 39.2836C94.2022 40.0518 95.8812 40.6462 97.5157 41.3053C94.9264 46.9661 83.7155 53.1809 72.8728 48.3126C62.5196 43.6667 57.9559 31.516 62.8514 21.375C67.6416 11.3796 80.2402 7.00455 90.1928 12.2408Z" fill="url(#paint2_linear_59_3474)"/>
<path d="M103.018 9.50746C104.839 14.2909 106.659 19.0379 108.532 23.9952L95.3351 29.0536C92.9507 29.9647 90.5624 30.8651 88.17 31.7546C83.5416 33.4812 79.1397 31.6576 77.5376 27.3513C75.9355 23.045 77.9786 18.86 82.4775 17.1375C88.8699 14.6791 95.2865 12.2853 101.695 9.85924C102.067 9.71772 102.468 9.64898 103.018 9.50746Z" fill="url(#paint3_linear_59_3474)"/>
<path d="M162.774 31.4028L155.318 35.1188C154.104 32.7736 152.935 30.4769 151.782 28.1559C149.84 24.258 147.955 20.3238 145.956 16.4501C145.587 15.782 145 15.2599 144.293 14.9702C140.466 13.5752 138.415 9.89565 139.515 6.20396C140.002 4.40053 141.185 2.86378 142.804 1.93071C144.424 0.99763 146.347 0.744374 148.153 1.22646C151.875 2.14432 153.991 5.77132 153.34 9.82287C153.158 10.8974 153.287 12.0014 153.712 13.0051C156.649 19.1148 159.683 25.1638 162.774 31.4028Z" fill="url(#paint4_linear_59_3474)"/>
<path d="M13.691 50.2778L6.11722 47.9123C8.02683 41.6369 9.94456 35.4989 11.7207 29.3124C11.9886 28.2567 11.9178 27.1435 11.5184 26.1302C10.0902 22.7215 11.3161 18.7306 14.4961 17.0607C16.0588 16.2235 17.8855 16.025 19.5917 16.507C21.2979 16.9889 22.7505 18.1136 23.6436 19.6444C25.5411 22.8388 24.5944 26.7326 21.5681 28.9444C20.6828 29.5861 20.0094 30.4773 19.6342 31.5039C17.7287 37.375 15.9687 43.2906 14.1522 49.1901C14.0591 49.461 13.9094 49.7521 13.691 50.2778Z" fill="url(#paint5_linear_59_3474)"/>
<path d="M10.9317 28.2206L5.57912 45.6358C-0.48957 44.3298 -0.772777 38.8266 0.849586 34.5689C2.80775 29.4256 7.32692 26.5183 10.9317 28.2206Z" fill="url(#paint6_linear_59_3474)"/>
<path d="M162.888 28.7948L154.464 11.8122C156.168 12.1842 157.442 12.2166 158.478 12.7301C162.791 14.8732 165.449 18.3667 166.165 23.1501C166.517 25.6611 165.396 27.5575 162.888 28.7948Z" fill="url(#paint7_linear_59_3474)"/>
<defs>
<linearGradient id="paint0_linear_59_3474" x1="0.00463486" y1="2.78753" x2="47.2928" y2="222.051" gradientUnits="userSpaceOnUse">
<stop stop-color="#AE95E2"/>
<stop offset="1" stop-color="#6691FF"/>
</linearGradient>
<linearGradient id="paint1_linear_59_3474" x1="0.00463486" y1="2.78753" x2="47.2928" y2="222.051" gradientUnits="userSpaceOnUse">
<stop stop-color="#AE95E2"/>
<stop offset="1" stop-color="#6691FF"/>
</linearGradient>
<linearGradient id="paint2_linear_59_3474" x1="0.00463486" y1="2.78753" x2="47.2928" y2="222.051" gradientUnits="userSpaceOnUse">
<stop stop-color="#AE95E2"/>
<stop offset="1" stop-color="#6691FF"/>
</linearGradient>
<linearGradient id="paint3_linear_59_3474" x1="0.00463486" y1="2.78753" x2="47.2928" y2="222.051" gradientUnits="userSpaceOnUse">
<stop stop-color="#AE95E2"/>
<stop offset="1" stop-color="#6691FF"/>
</linearGradient>
<linearGradient id="paint4_linear_59_3474" x1="0.00463486" y1="2.78753" x2="47.2928" y2="222.051" gradientUnits="userSpaceOnUse">
<stop stop-color="#AE95E2"/>
<stop offset="1" stop-color="#6691FF"/>
</linearGradient>
<linearGradient id="paint5_linear_59_3474" x1="0.00463486" y1="2.78753" x2="47.2928" y2="222.051" gradientUnits="userSpaceOnUse">
<stop stop-color="#AE95E2"/>
<stop offset="1" stop-color="#6691FF"/>
</linearGradient>
<linearGradient id="paint6_linear_59_3474" x1="0.00463486" y1="2.78753" x2="47.2928" y2="222.051" gradientUnits="userSpaceOnUse">
<stop stop-color="#AE95E2"/>
<stop offset="1" stop-color="#6691FF"/>
</linearGradient>
<linearGradient id="paint7_linear_59_3474" x1="0.00463486" y1="2.78753" x2="47.2928" y2="222.051" gradientUnits="userSpaceOnUse">
<stop stop-color="#AE95E2"/>
<stop offset="1" stop-color="#6691FF"/>
</linearGradient>
</defs>
</svg>
