<svg width="273" height="245" viewBox="0 0 273 245" fill="none" xmlns="http://www.w3.org/2000/svg">
<g style="mix-blend-mode:multiply" opacity="0.75">
<g style="mix-blend-mode:multiply" opacity="0.75">
<path d="M268.299 124.349H4.58787C2.23191 124.349 0.322021 126.258 0.322021 128.614V240.152C0.322021 242.508 2.23191 244.418 4.58787 244.418H268.299C270.655 244.418 272.565 242.508 272.565 240.152V128.614C272.565 126.258 270.655 124.349 268.299 124.349Z" fill="url(#paint0_linear_182_698)"/>
</g>
<g style="mix-blend-mode:multiply" opacity="0.75">
<path d="M268.299 124.652C269.35 124.652 270.358 125.07 271.101 125.813C271.844 126.556 272.261 127.564 272.261 128.614V240.159C272.259 241.208 271.841 242.214 271.099 242.956C270.356 243.698 269.349 244.114 268.299 244.114H4.56969C3.51995 244.114 2.51312 243.698 1.77027 242.956C1.02742 242.214 0.609285 241.208 0.607675 240.159V128.614C0.607675 127.564 1.0251 126.556 1.76812 125.813C2.51114 125.07 3.5189 124.652 4.56969 124.652H268.299ZM268.299 124.045H4.56969C3.96937 124.044 3.37478 124.162 2.82 124.391C2.26522 124.62 1.76115 124.957 1.33665 125.381C0.912158 125.806 0.575589 126.31 0.346224 126.865C0.116859 127.419 -0.000795849 128.014 4.05145e-06 128.614V240.159C3.5197e-06 240.758 0.118244 241.352 0.347967 241.906C0.57769 242.46 0.914389 242.964 1.3388 243.388C1.76322 243.812 2.26702 244.148 2.82141 244.377C3.37579 244.605 3.96988 244.723 4.56969 244.722H268.299C268.899 244.723 269.493 244.605 270.047 244.377C270.602 244.148 271.106 243.812 271.53 243.388C271.954 242.964 272.291 242.46 272.521 241.906C272.751 241.352 272.869 240.758 272.869 240.159V128.614C272.87 128.014 272.752 127.419 272.523 126.865C272.293 126.31 271.957 125.806 271.532 125.381C271.108 124.957 270.604 124.62 270.049 124.391C269.494 124.162 268.899 124.044 268.299 124.045Z" fill="url(#paint1_linear_182_698)"/>
</g>
</g>
<path d="M268.299 121.918H4.58787C2.23191 121.918 0.322021 123.828 0.322021 126.184V237.722C0.322021 240.078 2.23191 241.988 4.58787 241.988H268.299C270.655 241.988 272.565 240.078 272.565 237.722V126.184C272.565 123.828 270.655 121.918 268.299 121.918Z" fill="#E9EFF9"/>
<path d="M268.299 122.222C269.35 122.222 270.358 122.639 271.101 123.382C271.844 124.125 272.261 125.133 272.261 126.184V237.728C272.259 238.778 271.841 239.784 271.099 240.526C270.356 241.267 269.349 241.684 268.299 241.684H4.56969C3.51995 241.684 2.51312 241.267 1.77027 240.526C1.02742 239.784 0.609285 238.778 0.607675 237.728V126.184C0.607675 125.133 1.0251 124.125 1.76812 123.382C2.51114 122.639 3.5189 122.222 4.56969 122.222H268.299ZM268.299 121.614H4.56969C3.96937 121.613 3.37478 121.731 2.82 121.96C2.26522 122.19 1.76115 122.526 1.33665 122.951C0.912158 123.375 0.575589 123.879 0.346224 124.434C0.116859 124.989 -0.000795849 125.583 4.05145e-06 126.184V237.728C3.5197e-06 238.328 0.118244 238.922 0.347967 239.476C0.57769 240.03 0.914389 240.533 1.3388 240.957C1.76322 241.381 2.26702 241.717 2.82141 241.946C3.37579 242.175 3.96988 242.292 4.56969 242.291H268.299C268.899 242.292 269.493 242.175 270.047 241.946C270.602 241.717 271.106 241.381 271.53 240.957C271.954 240.533 272.291 240.03 272.521 239.476C272.751 238.922 272.869 238.328 272.869 237.728V126.184C272.87 125.583 272.752 124.989 272.523 124.434C272.293 123.879 271.957 123.375 271.532 122.951C271.108 122.526 270.604 122.19 270.049 121.96C269.494 121.731 268.899 121.613 268.299 121.614Z" fill="url(#paint2_linear_182_698)"/>
<path opacity="0.5" d="M47.1172 210.2C47.1172 220.402 38.8472 228.672 28.6457 228.672C18.4442 228.672 10.1742 220.402 10.1742 210.2C10.1742 199.999 18.4442 191.729 28.6457 191.729C38.8472 191.729 47.1172 199.999 47.1172 210.2Z" stroke="url(#paint3_linear_182_698)"/>
<path d="M23.6323 194.68V204.051C23.6323 204.326 23.5228 204.591 23.328 204.785C23.1331 204.98 22.8688 205.09 22.5932 205.09H13.1986C12.8953 205.088 12.6025 205.201 12.3776 205.404C12.1527 205.608 12.0121 205.888 11.9833 206.19C11.6835 208.814 11.6835 211.465 11.9833 214.089C12.0121 214.391 12.1527 214.672 12.3776 214.875C12.6025 215.079 12.8953 215.191 13.1986 215.189H22.6054C22.8799 215.191 23.1426 215.301 23.3362 215.496C23.5298 215.691 23.6384 215.954 23.6384 216.228V225.629C23.6366 225.93 23.7461 226.22 23.9459 226.445C24.1456 226.669 24.4214 226.811 24.7201 226.844C27.357 227.177 30.0253 227.177 32.6623 226.844C32.9609 226.811 33.2368 226.669 33.4365 226.445C33.6363 226.22 33.7458 225.93 33.744 225.629V216.21C33.744 215.935 33.8534 215.67 34.0483 215.475C34.2432 215.281 34.5075 215.171 34.7831 215.171H44.1473C44.4616 215.18 44.767 215.066 44.9993 214.854C45.2316 214.642 45.3727 214.349 45.393 214.035C45.4963 212.819 45.5632 211.44 45.5571 210C45.551 208.56 45.4903 207.387 45.393 206.214C45.3742 205.899 45.2337 205.604 45.0013 205.391C44.7688 205.178 44.4626 205.063 44.1473 205.072H34.777C34.5014 205.072 34.2371 204.962 34.0422 204.767C33.8474 204.572 33.7379 204.308 33.7379 204.032V194.68C33.7385 194.371 33.6214 194.074 33.4103 193.848C33.1992 193.622 32.91 193.485 32.6016 193.465C31.3437 193.356 29.9825 193.289 28.5241 193.295C27.1933 193.295 25.9354 193.362 24.7747 193.465C24.4677 193.491 24.1811 193.629 23.9701 193.853C23.7591 194.078 23.6388 194.372 23.6323 194.68V194.68Z" fill="url(#paint4_linear_182_698)"/>
<path d="M23.6322 194.68V202.671C23.6322 203.048 23.6322 203.808 23.6322 204.172C23.6029 204.429 23.4815 204.667 23.2904 204.841C23.0994 205.015 22.8516 205.115 22.5931 205.12H17.598H13.6056C13.2943 205.049 12.9677 205.092 12.6855 205.241C12.4032 205.391 12.1841 205.637 12.0682 205.934C11.7523 208.568 11.7523 211.231 12.0682 213.865C12.0658 214.014 12.0931 214.162 12.1485 214.3C12.2039 214.439 12.2864 214.565 12.391 214.671C12.4956 214.778 12.6204 214.862 12.758 214.92C12.8956 214.977 13.0432 215.007 13.1924 215.007L21.1772 214.946H22.1799C22.5512 214.896 22.9289 214.962 23.2615 215.135C23.4378 215.24 23.5854 215.387 23.6914 215.563C23.7974 215.739 23.8584 215.938 23.8692 216.143V217.152V221.145V225.137V225.635C23.8716 225.827 23.9305 226.014 24.0386 226.173C24.1466 226.332 24.2991 226.456 24.4769 226.528C24.7791 226.594 25.0858 226.637 25.3945 226.656C27.0363 226.815 28.6878 226.85 30.3348 226.759C30.9972 226.723 31.6535 226.662 32.3098 226.583C32.4407 226.591 32.572 226.574 32.696 226.531C32.8201 226.488 32.9345 226.422 33.0328 226.335C33.131 226.248 33.2111 226.142 33.2685 226.024C33.3259 225.906 33.3594 225.778 33.3671 225.647L33.4643 217.729C33.4643 217.383 33.4643 216.557 33.4643 216.222C33.4743 215.904 33.5992 215.6 33.8159 215.367C34.0326 215.133 34.3265 214.986 34.6432 214.952C35.3907 214.952 38.8605 214.952 39.6626 214.952H43.655H44.1533C44.3594 214.953 44.5608 214.891 44.7311 214.775C44.9013 214.659 45.0325 214.494 45.1073 214.302C45.2005 213.668 45.2492 213.029 45.2532 212.388L45.3504 210.401C45.4112 209.246 45.2349 207.6 45.2349 206.427C45.25 206.278 45.2345 206.127 45.1895 205.984C45.1444 205.841 45.0708 205.708 44.9731 205.595C44.8753 205.481 44.7555 205.389 44.6208 205.323C44.4861 205.257 44.3395 205.219 44.1897 205.211L36.211 205.151C35.8343 205.151 35.0686 205.151 34.704 205.151C34.4341 205.129 34.1809 205.011 33.9912 204.818C33.8014 204.625 33.6877 204.37 33.671 204.099C33.671 203.407 33.671 199.846 33.671 199.104V195.112C33.71 194.783 33.6704 194.45 33.5555 194.14C33.2699 193.465 32.5103 193.41 31.8662 193.416L30.8696 193.374L28.8764 193.289C27.7218 193.228 26.0629 193.41 24.8901 193.423C24.5585 193.414 24.2371 193.537 23.9958 193.765C23.7546 193.993 23.613 194.306 23.6018 194.638L23.6322 194.68ZM23.6322 194.68C23.633 194.514 23.6669 194.349 23.732 194.195C23.7971 194.042 23.8921 193.903 24.0114 193.786C24.1307 193.67 24.2719 193.578 24.427 193.517C24.582 193.455 24.7477 193.425 24.9144 193.429L26.9136 193.331C28.5763 193.256 30.242 193.274 31.9026 193.386C33.118 193.325 33.8836 193.793 33.7682 195.13V199.123V203.115C33.7986 203.686 33.6223 204.537 34.2422 204.865C34.53 205 34.8515 205.047 35.1658 204.999H36.1685L44.1594 204.944C44.3465 204.95 44.5306 204.994 44.7007 205.072C44.8708 205.15 45.0235 205.262 45.1499 205.4C45.3993 205.678 45.5321 206.041 45.5205 206.415L45.6238 208.414C45.718 210.082 45.718 211.753 45.6238 213.421C45.6238 214.138 45.5206 214.989 44.7184 215.305C44.3729 215.423 44.0067 215.469 43.6428 215.438H39.6504H35.658C35.099 215.481 34.4123 215.268 34.1024 215.84C34.0107 216.111 33.9796 216.399 34.0112 216.684V217.729V225.726C33.914 227.549 31.7203 227.252 30.4138 227.397C28.7357 227.484 27.0535 227.439 25.3823 227.264C25.2182 227.264 24.7746 227.191 24.6288 227.173C24.2738 227.119 23.9493 226.942 23.7133 226.671C23.4773 226.401 23.3452 226.055 23.3405 225.696V225.192C23.3405 223.198 23.3405 219.2 23.3709 217.207V216.216C23.3709 215.554 22.7268 215.372 22.1556 215.432H21.1529L13.1681 215.372C12.9822 215.373 12.798 215.337 12.6266 215.265C12.4553 215.193 12.3004 215.086 12.1715 214.952C11.5092 214.175 11.7705 212.917 11.6307 211.963C11.5272 209.955 11.6187 207.942 11.9042 205.953C12.0331 205.627 12.2739 205.357 12.5834 205.192C12.8929 205.028 13.251 204.978 13.5935 205.053H17.5859H22.5809C22.8254 205.047 23.0594 204.953 23.241 204.789C23.4225 204.626 23.5397 204.403 23.5715 204.16C23.5715 203.789 23.5715 203.03 23.5715 202.665V194.674L23.6322 194.68Z" fill="url(#paint5_linear_182_698)"/>
<path d="M107.558 229.233C133.668 229.233 154.835 208.066 154.835 181.956C154.835 155.846 133.668 134.679 107.558 134.679C81.4474 134.679 60.2809 155.846 60.2809 181.956C60.2809 208.066 81.4474 229.233 107.558 229.233Z" fill="url(#paint6_linear_182_698)"/>
<path d="M107.558 134.673C88.8658 134.509 70.9031 146.535 64.0485 163.932C51.4515 194.632 74.379 228.765 107.558 228.625C140.749 228.759 163.652 194.632 151.061 163.932C144.206 146.535 126.244 134.509 107.558 134.673V134.673ZM107.558 134.673C126.323 134.418 144.298 146.444 151.42 163.786C164.588 195.082 141.508 229.804 107.558 229.84C73.6072 229.877 50.5279 195.082 63.6961 163.786C70.818 146.45 88.7868 134.418 107.558 134.673V134.673Z" fill="url(#paint7_linear_182_698)"/>
<path d="M215.578 229.233C241.688 229.233 262.854 208.066 262.854 181.956C262.854 155.846 241.688 134.679 215.578 134.679C189.467 134.679 168.301 155.846 168.301 181.956C168.301 208.066 189.467 229.233 215.578 229.233Z" fill="url(#paint8_linear_182_698)"/>
<path d="M215.571 134.673C196.885 134.509 178.917 146.535 172.068 163.932C159.471 194.632 182.399 228.765 215.571 228.625C248.768 228.759 271.672 194.632 259.081 163.932C252.226 146.535 234.263 134.509 215.571 134.673V134.673ZM215.571 134.673C234.336 134.418 252.311 146.444 259.433 163.786C272.607 195.082 249.528 229.804 215.571 229.84C181.615 229.877 158.547 195.082 171.716 163.786C178.838 146.45 196.806 134.418 215.571 134.673V134.673Z" fill="url(#paint9_linear_182_698)"/>
<path d="M29.8913 176.785H27.6065C27.3078 176.785 27.0657 177.027 27.0657 177.325C27.0657 177.624 27.3078 177.866 27.6065 177.866H29.8913C30.19 177.866 30.4322 177.624 30.4322 177.325C30.4322 177.027 30.19 176.785 29.8913 176.785Z" fill="url(#paint10_linear_182_698)"/>
<path d="M29.8913 179.507H27.6065C27.3078 179.507 27.0657 179.749 27.0657 180.048C27.0657 180.346 27.3078 180.589 27.6065 180.589H29.8913C30.19 180.589 30.4322 180.346 30.4322 180.048C30.4322 179.749 30.19 179.507 29.8913 179.507Z" fill="url(#paint11_linear_182_698)"/>
<path d="M29.8913 182.235H27.6065C27.3078 182.235 27.0657 182.477 27.0657 182.776C27.0657 183.075 27.3078 183.317 27.6065 183.317H29.8913C30.19 183.317 30.4322 183.075 30.4322 182.776C30.4322 182.477 30.19 182.235 29.8913 182.235Z" fill="url(#paint12_linear_182_698)"/>
<path d="M45.5693 180.051C45.5693 176.931 43.0405 174.402 39.921 174.402C36.8015 174.402 34.2727 176.931 34.2727 180.051C34.2727 183.17 36.8015 185.699 39.921 185.699C43.0405 185.699 45.5693 183.17 45.5693 180.051Z" fill="url(#paint13_linear_182_698)"/>
<path d="M39.924 174.403C35.0141 174.36 32.5591 180.522 36.1139 183.858C37.1404 184.838 38.5049 185.385 39.924 185.385C41.3432 185.385 42.7077 184.838 43.7341 183.858C47.2829 180.516 44.828 174.366 39.924 174.403V174.403ZM39.924 174.403C44.9677 174.354 47.6536 180.601 44.1048 184.229C43.5595 184.784 42.9089 185.225 42.1911 185.527C41.4732 185.828 40.7025 185.983 39.924 185.983C39.1455 185.983 38.3748 185.828 37.657 185.527C36.9392 185.225 36.2886 184.784 35.7433 184.229C32.2005 180.583 34.8804 174.354 39.924 174.403Z" fill="url(#paint14_linear_182_698)"/>
<path d="M45.5693 160.575C45.5693 157.455 43.0405 154.927 39.921 154.927C36.8015 154.927 34.2727 157.455 34.2727 160.575C34.2727 163.694 36.8015 166.223 39.921 166.223C43.0405 166.223 45.5693 163.694 45.5693 160.575Z" fill="url(#paint15_linear_182_698)"/>
<path d="M39.924 154.927C35.0141 154.89 32.5591 161.046 36.1139 164.388C37.1404 165.368 38.5049 165.915 39.924 165.915C41.3432 165.915 42.7077 165.368 43.7341 164.388C47.2829 161.046 44.828 154.89 39.924 154.927V154.927ZM39.924 154.927C44.9677 154.878 47.6536 161.131 44.1048 164.759C43.5595 165.314 42.9089 165.756 42.1911 166.057C41.4732 166.358 40.7025 166.513 39.924 166.513C39.1455 166.513 38.3748 166.358 37.657 166.057C36.9392 165.756 36.2886 165.314 35.7433 164.759C32.2005 161.113 34.8804 154.878 39.924 154.927Z" fill="url(#paint16_linear_182_698)"/>
<path d="M23.0126 160.575C23.0126 157.455 20.4837 154.927 17.3642 154.927C14.2448 154.927 11.7159 157.455 11.7159 160.575C11.7159 163.694 14.2448 166.223 17.3642 166.223C20.4837 166.223 23.0126 163.694 23.0126 160.575Z" fill="url(#paint17_linear_182_698)"/>
<path d="M17.3673 154.927C12.4573 154.89 10.0023 161.046 13.5572 164.388C14.5836 165.368 15.9482 165.915 17.3673 165.915C18.7864 165.915 20.1509 165.368 21.1774 164.388C24.7262 161.046 22.2712 154.89 17.3673 154.927V154.927ZM17.3673 154.927C22.4109 154.878 25.0969 161.131 21.5481 164.759C21.0027 165.314 20.3522 165.756 19.6343 166.057C18.9165 166.358 18.1458 166.513 17.3673 166.513C16.5888 166.513 15.8181 166.358 15.1002 166.057C14.3824 165.756 13.7318 165.314 13.1865 164.759C9.64378 161.113 12.3236 154.878 17.3673 154.927Z" fill="url(#paint18_linear_182_698)"/>
<path opacity="0.46" d="M28.6457 149.403C32.6293 149.403 35.8587 146.174 35.8587 142.19C35.8587 138.206 32.6293 134.977 28.6457 134.977C24.662 134.977 21.4326 138.206 21.4326 142.19C21.4326 146.174 24.662 149.403 28.6457 149.403Z" fill="url(#paint19_linear_182_698)"/>
<path d="M17.5252 177.866C17.8239 177.866 18.066 177.624 18.066 177.325C18.066 177.027 17.8239 176.785 17.5252 176.785C17.2265 176.785 16.9844 177.027 16.9844 177.325C16.9844 177.624 17.2265 177.866 17.5252 177.866Z" fill="url(#paint20_linear_182_698)"/>
<path d="M42.063 158.834H37.7789V159.514H42.063V158.834Z" fill="url(#paint21_linear_182_698)"/>
<path d="M42.063 160.238H37.7789V160.918H42.063V160.238Z" fill="url(#paint22_linear_182_698)"/>
<path d="M42.063 161.641H37.7789V162.322H42.063V161.641Z" fill="url(#paint23_linear_182_698)"/>
<path d="M19.0808 160.718V161.605H17.592V160.718H19.0808ZM19.6885 160.11H16.9844V162.213H19.6885V160.11Z" fill="url(#paint24_linear_182_698)"/>
<path d="M15.8358 160.438V159.551H16.4739H17.3246H17.9323V158.943H15.2281V161.046H16.4739V160.438H15.8358Z" fill="url(#paint25_linear_182_698)"/>
<path fill-rule="evenodd" clip-rule="evenodd" d="M12.1594 125.693C11.5898 125.693 11.1281 126.155 11.1281 126.725C11.1281 127.294 11.5898 127.756 12.1594 127.756C12.729 127.756 13.1907 127.294 13.1907 126.725C13.1907 126.155 12.729 125.693 12.1594 125.693ZM10.1281 126.725C10.1281 125.603 11.0375 124.693 12.1594 124.693C13.2813 124.693 14.1907 125.603 14.1907 126.725C14.1907 127.846 13.2813 128.756 12.1594 128.756C11.0375 128.756 10.1281 127.846 10.1281 126.725Z" fill="url(#paint26_linear_182_698)"/>
<path fill-rule="evenodd" clip-rule="evenodd" d="M24.082 125.693C23.5124 125.693 23.0507 126.155 23.0507 126.725C23.0507 127.294 23.5124 127.756 24.082 127.756C24.6516 127.756 25.1133 127.294 25.1133 126.725C25.1133 126.155 24.6516 125.693 24.082 125.693ZM22.0507 126.725C22.0507 125.603 22.9601 124.693 24.082 124.693C25.2039 124.693 26.1133 125.603 26.1133 126.725C26.1133 127.846 25.2039 128.756 24.082 128.756C22.9601 128.756 22.0507 127.846 22.0507 126.725Z" fill="url(#paint27_linear_182_698)"/>
<path fill-rule="evenodd" clip-rule="evenodd" d="M36.0045 125.693C35.4349 125.693 34.9731 126.155 34.9731 126.725C34.9731 127.294 35.4349 127.756 36.0045 127.756C36.5741 127.756 37.0358 127.294 37.0358 126.725C37.0358 126.155 36.5741 125.693 36.0045 125.693ZM33.9731 126.725C33.9731 125.603 34.8826 124.693 36.0045 124.693C37.1264 124.693 38.0358 125.603 38.0358 126.725C38.0358 127.846 37.1264 128.756 36.0045 128.756C34.8826 128.756 33.9731 127.846 33.9731 126.725Z" fill="url(#paint28_linear_182_698)"/>
<path fill-rule="evenodd" clip-rule="evenodd" d="M47.9331 125.693C47.3635 125.693 46.9017 126.155 46.9017 126.725C46.9017 127.294 47.3635 127.756 47.9331 127.756C48.5027 127.756 48.9644 127.294 48.9644 126.725C48.9644 126.155 48.5027 125.693 47.9331 125.693ZM45.9017 126.725C45.9017 125.603 46.8112 124.693 47.9331 124.693C49.0549 124.693 49.9644 125.603 49.9644 126.725C49.9644 127.846 49.0549 128.756 47.9331 128.756C46.8112 128.756 45.9017 127.846 45.9017 126.725Z" fill="url(#paint29_linear_182_698)"/>
<path fill-rule="evenodd" clip-rule="evenodd" d="M59.8556 125.693C59.286 125.693 58.8242 126.155 58.8242 126.725C58.8242 127.294 59.286 127.756 59.8556 127.756C60.4251 127.756 60.8869 127.294 60.8869 126.725C60.8869 126.155 60.4251 125.693 59.8556 125.693ZM57.8242 126.725C57.8242 125.603 58.7337 124.693 59.8556 124.693C60.9774 124.693 61.8869 125.603 61.8869 126.725C61.8869 127.846 60.9774 128.756 59.8556 128.756C58.7337 128.756 57.8242 127.846 57.8242 126.725Z" fill="url(#paint30_linear_182_698)"/>
<path fill-rule="evenodd" clip-rule="evenodd" d="M71.7782 125.693C71.2086 125.693 70.7468 126.155 70.7468 126.725C70.7468 127.294 71.2086 127.756 71.7782 127.756C72.3477 127.756 72.8095 127.294 72.8095 126.725C72.8095 126.155 72.3477 125.693 71.7782 125.693ZM69.7468 126.725C69.7468 125.603 70.6563 124.693 71.7782 124.693C72.9 124.693 73.8095 125.603 73.8095 126.725C73.8095 127.846 72.9 128.756 71.7782 128.756C70.6563 128.756 69.7468 127.846 69.7468 126.725Z" fill="url(#paint31_linear_182_698)"/>
<path fill-rule="evenodd" clip-rule="evenodd" d="M83.7006 125.693C83.1311 125.693 82.6693 126.155 82.6693 126.725C82.6693 127.294 83.1311 127.756 83.7006 127.756C84.2702 127.756 84.732 127.294 84.732 126.725C84.732 126.155 84.2702 125.693 83.7006 125.693ZM81.6693 126.725C81.6693 125.603 82.5788 124.693 83.7006 124.693C84.8225 124.693 85.732 125.603 85.732 126.725C85.732 127.846 84.8225 128.756 83.7006 128.756C82.5788 128.756 81.6693 127.846 81.6693 126.725Z" fill="url(#paint32_linear_182_698)"/>
<path fill-rule="evenodd" clip-rule="evenodd" d="M95.6292 125.693C95.0596 125.693 94.5979 126.155 94.5979 126.725C94.5979 127.294 95.0596 127.756 95.6292 127.756C96.1988 127.756 96.6606 127.294 96.6606 126.725C96.6606 126.155 96.1988 125.693 95.6292 125.693ZM93.5979 126.725C93.5979 125.603 94.5073 124.693 95.6292 124.693C96.7511 124.693 97.6606 125.603 97.6606 126.725C97.6606 127.846 96.7511 128.756 95.6292 128.756C94.5073 128.756 93.5979 127.846 93.5979 126.725Z" fill="url(#paint33_linear_182_698)"/>
<path fill-rule="evenodd" clip-rule="evenodd" d="M107.552 125.693C106.982 125.693 106.52 126.155 106.52 126.725C106.52 127.294 106.982 127.756 107.552 127.756C108.121 127.756 108.583 127.294 108.583 126.725C108.583 126.155 108.121 125.693 107.552 125.693ZM105.52 126.725C105.52 125.603 106.43 124.693 107.552 124.693C108.674 124.693 109.583 125.603 109.583 126.725C109.583 127.846 108.674 128.756 107.552 128.756C106.43 128.756 105.52 127.846 105.52 126.725Z" fill="url(#paint34_linear_182_698)"/>
<path fill-rule="evenodd" clip-rule="evenodd" d="M119.474 125.693C118.905 125.693 118.443 126.155 118.443 126.725C118.443 127.294 118.905 127.756 119.474 127.756C120.044 127.756 120.506 127.294 120.506 126.725C120.506 126.155 120.044 125.693 119.474 125.693ZM117.443 126.725C117.443 125.603 118.352 124.693 119.474 124.693C120.596 124.693 121.506 125.603 121.506 126.725C121.506 127.846 120.596 128.756 119.474 128.756C118.352 128.756 117.443 127.846 117.443 126.725Z" fill="url(#paint35_linear_182_698)"/>
<path fill-rule="evenodd" clip-rule="evenodd" d="M131.397 125.693C130.827 125.693 130.365 126.155 130.365 126.725C130.365 127.294 130.827 127.756 131.397 127.756C131.966 127.756 132.428 127.294 132.428 126.725C132.428 126.155 131.966 125.693 131.397 125.693ZM129.365 126.725C129.365 125.603 130.275 124.693 131.397 124.693C132.519 124.693 133.428 125.603 133.428 126.725C133.428 127.846 132.519 128.756 131.397 128.756C130.275 128.756 129.365 127.846 129.365 126.725Z" fill="url(#paint36_linear_182_698)"/>
<path fill-rule="evenodd" clip-rule="evenodd" d="M143.325 125.693C142.756 125.693 142.294 126.155 142.294 126.725C142.294 127.294 142.756 127.756 143.325 127.756C143.895 127.756 144.357 127.294 144.357 126.725C144.357 126.155 143.895 125.693 143.325 125.693ZM141.294 126.725C141.294 125.603 142.204 124.693 143.325 124.693C144.447 124.693 145.357 125.603 145.357 126.725C145.357 127.846 144.447 128.756 143.325 128.756C142.204 128.756 141.294 127.846 141.294 126.725Z" fill="url(#paint37_linear_182_698)"/>
<path fill-rule="evenodd" clip-rule="evenodd" d="M155.248 125.693C154.678 125.693 154.217 126.155 154.217 126.725C154.217 127.294 154.678 127.756 155.248 127.756C155.817 127.756 156.279 127.294 156.279 126.725C156.279 126.155 155.817 125.693 155.248 125.693ZM153.217 126.725C153.217 125.603 154.126 124.693 155.248 124.693C156.37 124.693 157.279 125.603 157.279 126.725C157.279 127.846 156.37 128.756 155.248 128.756C154.126 128.756 153.217 127.846 153.217 126.725Z" fill="url(#paint38_linear_182_698)"/>
<path fill-rule="evenodd" clip-rule="evenodd" d="M167.171 125.693C166.601 125.693 166.139 126.155 166.139 126.725C166.139 127.294 166.601 127.756 167.171 127.756C167.74 127.756 168.202 127.294 168.202 126.725C168.202 126.155 167.74 125.693 167.171 125.693ZM165.139 126.725C165.139 125.603 166.049 124.693 167.171 124.693C168.292 124.693 169.202 125.603 169.202 126.725C169.202 127.846 168.292 128.756 167.171 128.756C166.049 128.756 165.139 127.846 165.139 126.725Z" fill="url(#paint39_linear_182_698)"/>
<path fill-rule="evenodd" clip-rule="evenodd" d="M179.093 125.693C178.523 125.693 178.062 126.155 178.062 126.725C178.062 127.294 178.523 127.756 179.093 127.756C179.662 127.756 180.124 127.294 180.124 126.725C180.124 126.155 179.662 125.693 179.093 125.693ZM177.062 126.725C177.062 125.603 177.971 124.693 179.093 124.693C180.215 124.693 181.124 125.603 181.124 126.725C181.124 127.846 180.215 128.756 179.093 128.756C177.971 128.756 177.062 127.846 177.062 126.725Z" fill="url(#paint40_linear_182_698)"/>
<path fill-rule="evenodd" clip-rule="evenodd" d="M191.022 125.693C190.452 125.693 189.99 126.155 189.99 126.725C189.99 127.294 190.452 127.756 191.022 127.756C191.591 127.756 192.053 127.294 192.053 126.725C192.053 126.155 191.591 125.693 191.022 125.693ZM188.99 126.725C188.99 125.603 189.9 124.693 191.022 124.693C192.143 124.693 193.053 125.603 193.053 126.725C193.053 127.846 192.143 128.756 191.022 128.756C189.9 128.756 188.99 127.846 188.99 126.725Z" fill="url(#paint41_linear_182_698)"/>
<path fill-rule="evenodd" clip-rule="evenodd" d="M202.944 125.693C202.374 125.693 201.913 126.155 201.913 126.725C201.913 127.294 202.374 127.756 202.944 127.756C203.514 127.756 203.975 127.294 203.975 126.725C203.975 126.155 203.514 125.693 202.944 125.693ZM200.913 126.725C200.913 125.603 201.822 124.693 202.944 124.693C204.066 124.693 204.975 125.603 204.975 126.725C204.975 127.846 204.066 128.756 202.944 128.756C201.822 128.756 200.913 127.846 200.913 126.725Z" fill="url(#paint42_linear_182_698)"/>
<path fill-rule="evenodd" clip-rule="evenodd" d="M214.867 125.693C214.297 125.693 213.835 126.155 213.835 126.725C213.835 127.294 214.297 127.756 214.867 127.756C215.436 127.756 215.898 127.294 215.898 126.725C215.898 126.155 215.436 125.693 214.867 125.693ZM212.835 126.725C212.835 125.603 213.745 124.693 214.867 124.693C215.988 124.693 216.898 125.603 216.898 126.725C216.898 127.846 215.988 128.756 214.867 128.756C213.745 128.756 212.835 127.846 212.835 126.725Z" fill="url(#paint43_linear_182_698)"/>
<path fill-rule="evenodd" clip-rule="evenodd" d="M226.789 125.693C226.219 125.693 225.758 126.155 225.758 126.725C225.758 127.294 226.219 127.756 226.789 127.756C227.358 127.756 227.82 127.294 227.82 126.725C227.82 126.155 227.358 125.693 226.789 125.693ZM224.758 126.725C224.758 125.603 225.667 124.693 226.789 124.693C227.911 124.693 228.82 125.603 228.82 126.725C228.82 127.846 227.911 128.756 226.789 128.756C225.667 128.756 224.758 127.846 224.758 126.725Z" fill="url(#paint44_linear_182_698)"/>
<path fill-rule="evenodd" clip-rule="evenodd" d="M238.718 125.693C238.148 125.693 237.686 126.155 237.686 126.725C237.686 127.294 238.148 127.756 238.718 127.756C239.287 127.756 239.749 127.294 239.749 126.725C239.749 126.155 239.287 125.693 238.718 125.693ZM236.686 126.725C236.686 125.603 237.596 124.693 238.718 124.693C239.839 124.693 240.749 125.603 240.749 126.725C240.749 127.846 239.839 128.756 238.718 128.756C237.596 128.756 236.686 127.846 236.686 126.725Z" fill="url(#paint45_linear_182_698)"/>
<path fill-rule="evenodd" clip-rule="evenodd" d="M250.64 125.693C250.07 125.693 249.609 126.155 249.609 126.725C249.609 127.294 250.07 127.756 250.64 127.756C251.21 127.756 251.671 127.294 251.671 126.725C251.671 126.155 251.21 125.693 250.64 125.693ZM248.609 126.725C248.609 125.603 249.518 124.693 250.64 124.693C251.762 124.693 252.671 125.603 252.671 126.725C252.671 127.846 251.762 128.756 250.64 128.756C249.518 128.756 248.609 127.846 248.609 126.725Z" fill="url(#paint46_linear_182_698)"/>
<path fill-rule="evenodd" clip-rule="evenodd" d="M262.563 125.693C261.993 125.693 261.531 126.155 261.531 126.725C261.531 127.294 261.993 127.756 262.563 127.756C263.132 127.756 263.594 127.294 263.594 126.725C263.594 126.155 263.132 125.693 262.563 125.693ZM260.531 126.725C260.531 125.603 261.441 124.693 262.563 124.693C263.684 124.693 264.594 125.603 264.594 126.725C264.594 127.846 263.684 128.756 262.563 128.756C261.441 128.756 260.531 127.846 260.531 126.725Z" fill="url(#paint47_linear_182_698)"/>
<path d="M34.4246 145.611C34.3082 144.993 34.1036 144.396 33.8169 143.837C33.0218 142.229 32.0561 140.711 30.9366 139.309L30.657 138.957L31.0277 138.623C31.4392 138.227 31.88 137.864 32.3464 137.535C32.6679 137.319 33.0203 137.153 33.3916 137.043C33.4601 137.018 33.5344 137.013 33.6056 137.029C33.6768 137.045 33.7418 137.082 33.7926 137.134C33.8073 137.152 33.8235 137.168 33.8412 137.183C33.3997 136.729 32.9013 136.335 32.3585 136.01H32.3099C32.1033 136.01 31.8967 136.01 31.7022 136.01C31.3743 136.033 31.0501 136.095 30.736 136.192C30.1558 136.368 29.5924 136.596 29.0528 136.873L28.7368 137.012C28.7058 137.032 28.67 137.042 28.6335 137.042C28.597 137.042 28.5612 137.032 28.5302 137.012C28.275 136.885 28.0197 136.757 27.7645 136.642C27.2379 136.397 26.6883 136.206 26.1238 136.071C25.812 136.008 25.4931 135.987 25.1758 136.01H25.0118C24.4946 136.317 24.017 136.686 23.5898 137.11C23.6483 137.073 23.7145 137.051 23.783 137.045C23.8516 137.038 23.9207 137.048 23.9848 137.073C24.4115 137.207 24.8123 137.412 25.1698 137.681C25.611 138.02 26.0349 138.381 26.4398 138.763L26.6768 138.975C26.5492 139.133 26.4216 139.285 26.3 139.443C25.1591 140.87 24.1864 142.424 23.4014 144.074C23.1674 144.562 22.9978 145.079 22.8971 145.611C22.8384 145.864 22.822 146.125 22.8485 146.383C22.8485 146.437 22.8789 146.492 22.891 146.547C23.1647 146.915 23.4741 147.255 23.8147 147.562C23.7269 147.415 23.6866 147.246 23.6992 147.075C23.7206 146.776 23.799 146.483 23.9301 146.213C24.1913 145.646 24.5176 145.112 24.9024 144.62C25.5926 143.708 26.359 142.857 27.1933 142.074C27.5896 141.682 28.0097 141.315 28.4512 140.974L28.5241 140.92C28.67 140.823 28.6821 140.816 28.8158 140.92C29.1196 141.175 29.4235 141.43 29.7091 141.698C30.4373 142.367 31.1271 143.077 31.7752 143.824C32.367 144.485 32.8734 145.218 33.2822 146.006C33.4309 146.284 33.5354 146.583 33.5921 146.893C33.6074 147.014 33.6074 147.137 33.5921 147.258C33.5852 147.362 33.5517 147.462 33.4949 147.549C33.8298 147.245 34.135 146.909 34.4064 146.547V146.431C34.464 146.161 34.4702 145.883 34.4246 145.611V145.611Z" fill="url(#paint48_linear_182_698)"/>
<path fill-rule="evenodd" clip-rule="evenodd" d="M22.082 0H118.369V12.7619H114.369V4H26.082V113.38H22.082V0Z" fill="url(#paint49_linear_182_698)"/>
<path d="M27.7706 112.888H20.3934L24.082 116.576L27.7706 112.888Z" fill="url(#paint50_linear_182_698)"/>
<path fill-rule="evenodd" clip-rule="evenodd" d="M69.7782 54.5688H108.92V85.6095H104.92V58.5688H73.7782V113.38H69.7782V54.5688Z" fill="url(#paint51_linear_182_698)"/>
<path d="M75.4728 112.888H68.0896L71.7782 116.576L75.4728 112.888Z" fill="url(#paint52_linear_182_698)"/>
<path d="M106.92 109.594C117.408 109.594 125.91 101.092 125.91 90.6046C125.91 80.1169 117.408 71.6149 106.92 71.6149C96.432 71.6149 87.9301 80.1169 87.9301 90.6046C87.9301 101.092 96.432 109.594 106.92 109.594Z" fill="url(#paint53_linear_182_698)"/>
<path d="M87.93 89.693C89.042 105.79 107.983 113.708 119.845 102.618C123.406 99.2142 125.572 94.6066 125.922 89.693C126.109 92.2175 125.757 94.7531 124.889 97.1309C122.294 104.52 114.753 109.667 106.932 109.594C96.2915 109.71 87.061 100.4 87.9421 89.693H87.93Z" fill="url(#paint54_linear_182_698)"/>
<path d="M106.92 100.777C104.832 100.778 102.79 100.16 101.053 99.0007C99.3166 97.8413 97.9628 96.1929 97.1632 94.2639C96.3635 92.3349 96.154 90.2121 96.561 88.164C96.9681 86.1159 97.9735 84.2346 99.4501 82.7581C100.927 81.2815 102.808 80.2761 104.856 79.869C106.904 79.4619 109.027 79.6715 110.956 80.4711C112.885 81.2708 114.533 82.6246 115.693 84.3614C116.852 86.0981 117.47 88.1397 117.469 90.2278C117.466 93.0247 116.353 95.706 114.376 97.6837C112.398 99.6613 109.717 100.774 106.92 100.777V100.777Z" fill="#E9EFF9"/>
<path d="M106.92 79.9763C108.947 79.9775 110.929 80.5798 112.614 81.707C114.299 82.8341 115.612 84.4356 116.387 86.3089C117.162 88.1822 117.364 90.2432 116.967 92.2314C116.571 94.2196 115.594 96.0457 114.16 97.4787C112.726 98.9118 110.9 99.8876 108.911 100.283C106.923 100.678 104.862 100.474 102.989 99.6982C101.116 98.9222 99.5157 97.6082 98.3896 95.9225C97.2634 94.2368 96.6623 92.255 96.6623 90.2277C96.6639 87.5104 97.7437 84.9048 99.6645 82.9828C101.585 81.0608 104.19 79.9795 106.908 79.9763H106.92ZM106.908 79.3687C104.76 79.3675 102.66 80.0033 100.873 81.1958C99.0864 82.3883 97.6937 84.0838 96.8708 86.0679C96.048 88.0521 95.8321 90.2357 96.2504 92.3425C96.6687 94.4494 97.7025 96.3849 99.2209 97.9041C100.739 99.4234 102.674 100.458 104.781 100.878C106.887 101.297 109.071 101.083 111.056 100.261C113.04 99.4391 114.737 98.0473 115.93 96.2614C117.124 94.4755 117.761 92.3757 117.761 90.2277C117.761 88.802 117.481 87.3901 116.936 86.0726C116.391 84.7552 115.592 83.558 114.584 82.5496C113.576 81.5411 112.379 80.7412 111.062 80.1954C109.745 79.6496 108.333 79.3687 106.908 79.3687Z" fill="url(#paint55_linear_182_698)"/>
<path fill-rule="evenodd" clip-rule="evenodd" d="M104.92 94.1351V89.3953H108.92V94.1351H104.92Z" fill="url(#paint56_linear_182_698)"/>
<path d="M111.793 90.0516H102.046L106.92 85.1781L111.793 90.0516Z" fill="url(#paint57_linear_182_698)"/>
<path d="M107.047 73.0368V74.1063C106.936 74.1106 106.826 74.1269 106.719 74.1549C106.377 74.2322 106.074 74.4281 105.862 74.7079C105.727 74.8886 105.632 75.0956 105.583 75.3156C105.57 75.4388 105.57 75.563 105.583 75.6863C105.601 76.0318 105.738 76.3604 105.972 76.616C106.166 76.8276 106.417 76.9793 106.695 77.0535C106.817 77.089 106.944 77.1094 107.072 77.1143V77.1143V78.1838C106.758 78.1821 106.447 78.1244 106.154 78.0136C105.797 77.8789 105.474 77.6668 105.209 77.3924C104.943 77.118 104.742 76.7883 104.62 76.4268C104.497 76.0654 104.456 75.6812 104.5 75.3021C104.543 74.9229 104.67 74.5581 104.872 74.2339C105.138 73.7968 105.533 73.4528 106.002 73.2495C106.331 73.1049 106.688 73.0324 107.047 73.0368Z" fill="#E9EFF9"/>
<path d="M109.423 75.1576V77.4728H108.329V76.2271H107.084C107.084 75.8686 107.084 75.5161 107.084 75.1576H109.423Z" fill="#E9EFF9"/>
<path d="M121.534 22.5332C121.978 25.788 122.207 29.0684 122.221 32.3532C122.01 33.7973 121.286 35.1173 120.182 36.0718C119.078 37.0263 117.668 37.5516 116.208 37.5516C114.749 37.5516 113.338 37.0263 112.234 36.0718C111.13 35.1173 110.406 33.7973 110.195 32.3532C110.209 29.0684 110.438 25.788 110.882 22.5332C111.265 25.4075 111.49 28.2878 111.593 31.1621C111.6 32.4127 112.098 33.6105 112.978 34.4983C115.154 36.8256 119.322 35.9567 120.453 32.9973C120.684 32.4162 120.811 31.7993 120.829 31.1743C120.963 28.3 121.158 25.4196 121.534 22.5454V22.5332Z" fill="url(#paint58_linear_182_698)"/>
<path d="M121.534 22.5332V31.4235C121.534 32.8353 120.973 34.1892 119.975 35.1875C118.977 36.1858 117.623 36.7467 116.211 36.7467C114.799 36.7467 113.444 36.186 112.445 35.1879C111.446 34.1898 110.883 32.8358 110.882 31.4235V22.5332" fill="url(#paint59_linear_182_698)"/>
<path d="M110.882 22.9161V14.0258C110.883 12.6135 111.446 11.2595 112.445 10.2614C113.444 9.26328 114.799 8.70264 116.211 8.70264C117.623 8.70264 118.977 9.26347 119.975 10.2618C120.973 11.2601 121.534 12.614 121.534 14.0258V22.9161" fill="url(#paint60_linear_182_698)"/>
<path d="M110.882 22.9161C110.44 19.6612 110.213 16.3808 110.201 13.0961C110.417 11.6562 111.142 10.3415 112.245 9.39121C113.348 8.44092 114.755 7.91821 116.211 7.91821C117.667 7.91821 119.074 8.44092 120.177 9.39121C121.28 10.3415 122.006 11.6562 122.221 13.0961C122.213 16.3811 121.984 19.6619 121.534 22.9161C121.157 20.0418 120.957 17.1614 120.823 14.2871C120.819 13.0361 120.321 11.8373 119.438 10.951C117.268 8.62363 113.1 9.4926 111.969 12.452C111.739 13.033 111.611 13.65 111.593 14.275C111.459 17.1493 111.259 20.0296 110.882 22.9039V22.9161Z" fill="url(#paint61_linear_182_698)"/>
<path d="M116.211 33.6719C118.436 33.6719 120.24 31.8681 120.24 29.643C120.24 27.4179 118.436 25.6141 116.211 25.6141C113.986 25.6141 112.182 27.4179 112.182 29.643C112.182 31.8681 113.986 33.6719 116.211 33.6719Z" fill="#E9EFF9"/>
<path fill-rule="evenodd" clip-rule="evenodd" d="M118.174 30.7402H116.035V28.7402H118.174V30.7402Z" fill="url(#paint62_linear_182_698)"/>
<path d="M116.314 27.6741V31.8062L114.248 29.7402L116.314 27.6741Z" fill="url(#paint63_linear_182_698)"/>
<path d="M116.333 10.635V11.7288C116.222 11.731 116.112 11.7453 116.004 11.7714C115.662 11.8511 115.359 12.0491 115.148 12.3304C115.007 12.5079 114.912 12.7162 114.868 12.9381C114.853 13.0632 114.853 13.1897 114.868 13.3148C114.887 13.6584 115.025 13.9848 115.257 14.2385C115.451 14.4518 115.702 14.6056 115.98 14.6821C116.101 14.7151 116.226 14.7335 116.351 14.7368V14.7368V15.8063C115.937 15.805 115.529 15.7051 115.161 15.5149C114.794 15.3247 114.476 15.0496 114.236 14.7125C114.016 14.4025 113.867 14.0475 113.8 13.6731C113.733 13.2987 113.75 12.9141 113.849 12.547C113.949 12.1798 114.128 11.8392 114.374 11.5497C114.621 11.2601 114.929 11.0286 115.275 10.872C115.607 10.7207 115.968 10.64 116.333 10.635V10.635Z" fill="#E9EFF9"/>
<path d="M118.684 12.7618V15.071H117.621V13.8192H116.369V12.7618H118.684Z" fill="#E9EFF9"/>
<path d="M151.924 109.594C162.412 109.594 170.914 101.092 170.914 90.6046C170.914 80.1169 162.412 71.6149 151.924 71.6149C141.436 71.6149 132.934 80.1169 132.934 90.6046C132.934 101.092 141.436 109.594 151.924 109.594Z" fill="url(#paint64_linear_182_698)"/>
<path d="M132.928 89.693C134.046 105.79 152.981 113.708 164.849 102.618C168.41 99.2142 170.576 94.6066 170.926 89.693C171.114 92.2175 170.761 94.7531 169.893 97.1309C167.298 104.52 159.757 109.667 151.936 109.594C141.296 109.71 132.065 100.4 132.94 89.693H132.928Z" fill="url(#paint65_linear_182_698)"/>
<path d="M151.924 100.777C149.836 100.778 147.794 100.16 146.057 99.0007C144.321 97.8413 142.967 96.1929 142.167 94.2639C141.367 92.3349 141.158 90.2121 141.565 88.164C141.972 86.1159 142.977 84.2346 144.454 82.7581C145.931 81.2815 147.812 80.2761 149.86 79.869C151.908 79.4619 154.031 79.6715 155.96 80.4711C157.889 81.2708 159.537 82.6246 160.697 84.3614C161.856 86.0981 162.474 88.1397 162.473 90.2278C162.47 93.0247 161.357 95.706 159.38 97.6837C157.402 99.6613 154.721 100.774 151.924 100.777V100.777Z" fill="#E9EFF9"/>
<path d="M151.924 79.9763C153.951 79.9763 155.933 80.5776 157.619 81.704C159.305 82.8304 160.619 84.4315 161.395 86.3047C162.171 88.1779 162.374 90.2391 161.978 92.2277C161.583 94.2163 160.606 96.0429 159.173 97.4766C157.739 98.9103 155.912 99.8866 153.924 100.282C151.935 100.678 149.874 100.475 148.001 99.6988C146.128 98.9229 144.527 97.609 143.4 95.9231C142.274 94.2373 141.672 92.2553 141.672 90.2277C141.674 87.5094 142.755 84.9028 144.677 82.9807C146.599 81.0585 149.206 79.9779 151.924 79.9763V79.9763ZM151.924 79.3687C149.776 79.3675 147.676 80.0033 145.889 81.1958C144.103 82.3883 142.71 84.0838 141.887 86.0679C141.064 88.0521 140.848 90.2357 141.267 92.3425C141.685 94.4494 142.719 96.3849 144.237 97.9041C145.756 99.4234 147.69 100.458 149.797 100.878C151.904 101.297 154.087 101.083 156.072 100.261C158.057 99.4391 159.753 98.0473 160.946 96.2614C162.14 94.4755 162.777 92.3757 162.777 90.2277C162.777 87.3488 161.634 84.5877 159.598 82.5514C157.563 80.5151 154.803 79.3703 151.924 79.3687V79.3687Z" fill="url(#paint66_linear_182_698)"/>
<path fill-rule="evenodd" clip-rule="evenodd" d="M153.924 86.126V90.8597H149.924V86.126H153.924Z" fill="url(#paint67_linear_182_698)"/>
<path d="M147.05 90.2095H156.797L151.924 95.0831L147.05 90.2095Z" fill="url(#paint68_linear_182_698)"/>
<path fill-rule="evenodd" clip-rule="evenodd" d="M149.924 54.5688H192.979V113.38H188.979V58.5688H153.924V71.6148H149.924V54.5688Z" fill="url(#paint69_linear_182_698)"/>
<path d="M194.667 112.888H187.29L190.979 116.576L194.667 112.888Z" fill="url(#paint70_linear_182_698)"/>
<path d="M152.046 73.0368V74.1063C151.816 74.1172 151.592 74.1771 151.387 74.2819C151.183 74.3867 151.003 74.534 150.861 74.714C150.721 74.8919 150.625 75.1 150.581 75.3217C150.508 75.6953 150.58 76.0826 150.782 76.4053C150.984 76.728 151.301 76.9618 151.669 77.0596C151.789 77.0946 151.914 77.115 152.039 77.1204V77.1204V78.1899C151.726 78.1887 151.415 78.131 151.122 78.0197C150.765 77.8848 150.442 77.6726 150.177 77.3984C149.912 77.1241 149.71 76.7946 149.587 76.4334C149.464 76.0723 149.422 75.6883 149.465 75.3091C149.507 74.9299 149.633 74.5648 149.834 74.24C150.07 73.8692 150.396 73.5636 150.782 73.3513C151.167 73.1389 151.599 73.0267 152.039 73.0247L152.046 73.0368Z" fill="#E9EFF9"/>
<path d="M154.391 75.1576V77.4728H153.328V76.2271H152.082V75.1576H154.391Z" fill="#E9EFF9"/>
<path fill-rule="evenodd" clip-rule="evenodd" d="M145.889 0H240.718V113.38H236.718V4H149.889V12.7619H145.889V0Z" fill="url(#paint71_linear_182_698)"/>
<path d="M242.406 112.888H235.023L238.718 116.576L242.406 112.888Z" fill="url(#paint72_linear_182_698)"/>
<path d="M153.048 22.5332C153.492 25.788 153.721 29.0684 153.735 32.3532C153.524 33.7973 152.8 35.1173 151.696 36.0718C150.592 37.0263 149.181 37.5516 147.722 37.5516C146.262 37.5516 144.852 37.0263 143.748 36.0718C142.644 35.1173 141.92 33.7973 141.709 32.3532C141.723 29.0684 141.952 25.788 142.396 22.5332C142.778 25.4075 142.973 28.2878 143.107 31.1621C143.114 32.4127 143.611 33.6105 144.492 34.4983C146.668 36.8256 150.836 35.9567 151.966 32.9973C152.197 32.4162 152.325 31.7993 152.343 31.1743C152.477 28.3 152.671 25.4196 153.048 22.5454V22.5332Z" fill="url(#paint73_linear_182_698)"/>
<path d="M153.048 22.5332V31.4234C153.048 32.8352 152.487 34.1892 151.489 35.1875C150.491 36.1858 149.137 36.7466 147.725 36.7466C146.313 36.7466 144.958 36.186 143.959 35.1879C142.959 34.1897 142.397 32.8358 142.396 31.4234V22.5332" fill="url(#paint74_linear_182_698)"/>
<path d="M142.396 22.916V14.0258C142.394 12.6145 142.952 11.2601 143.948 10.2599C144.944 9.2597 146.295 8.69526 147.707 8.69043C149.118 8.69043 150.472 9.25127 151.471 10.2496C152.469 11.2479 153.03 12.6018 153.03 14.0136V22.9039" fill="url(#paint75_linear_182_698)"/>
<path d="M142.396 22.9161C141.954 19.6612 141.727 16.3808 141.715 13.0961C141.93 11.6562 142.656 10.3415 143.759 9.39121C144.862 8.44092 146.269 7.91821 147.725 7.91821C149.181 7.91821 150.588 8.44092 151.691 9.39121C152.794 10.3415 153.519 11.6562 153.735 13.0961C153.727 16.3811 153.498 19.6619 153.048 22.9161C152.671 20.0418 152.44 17.1614 152.337 14.2871C152.333 13.0361 151.835 11.8373 150.952 10.951C148.782 8.62363 144.614 9.4926 143.483 12.452C143.253 13.033 143.125 13.65 143.107 14.275C142.973 17.1493 142.772 20.0296 142.396 22.9039V22.9161Z" fill="url(#paint76_linear_182_698)"/>
<path d="M147.725 33.6719C149.95 33.6719 151.754 31.8681 151.754 29.643C151.754 27.4179 149.95 25.6141 147.725 25.6141C145.5 25.6141 143.696 27.4179 143.696 29.643C143.696 31.8681 145.5 33.6719 147.725 33.6719Z" fill="#E9EFF9"/>
<path fill-rule="evenodd" clip-rule="evenodd" d="M145.762 28.7402H147.895V30.7402H145.762V28.7402Z" fill="url(#paint77_linear_182_698)"/>
<path d="M147.621 31.8062V27.6741L149.688 29.7402L147.621 31.8062Z" fill="url(#paint78_linear_182_698)"/>
<path d="M147.846 10.635V11.7288C147.736 11.731 147.626 11.7453 147.518 11.7714C147.176 11.8511 146.872 12.0491 146.661 12.3304C146.521 12.5079 146.425 12.7162 146.382 12.9381C146.367 13.0632 146.367 13.1897 146.382 13.3148C146.401 13.6584 146.538 13.9848 146.771 14.2385C146.965 14.4518 147.216 14.6056 147.494 14.6821C147.615 14.7151 147.739 14.7335 147.865 14.7368V15.8063C147.451 15.805 147.043 15.7051 146.675 15.5149C146.307 15.3247 145.99 15.0496 145.75 14.7125C145.53 14.4025 145.381 14.0475 145.314 13.6731C145.247 13.2987 145.264 12.9141 145.363 12.547C145.462 12.1798 145.642 11.8392 145.888 11.5497C146.135 11.2601 146.442 11.0286 146.789 10.872C147.121 10.7207 147.481 10.64 147.846 10.635Z" fill="#E9EFF9"/>
<path d="M150.198 12.7618V15.071H149.135V13.8192H147.883V12.7618H150.198Z" fill="#E9EFF9"/>
<defs>
<linearGradient id="paint0_linear_182_698" x1="0.322016" y1="125.474" x2="13.154" y2="267.806" gradientUnits="userSpaceOnUse">
<stop stop-color="#AE95E2"/>
<stop offset="1" stop-color="#6691FF"/>
</linearGradient>
<linearGradient id="paint1_linear_182_698" x1="-5.7163e-06" y1="125.176" x2="12.9319" y2="268.222" gradientUnits="userSpaceOnUse">
<stop stop-color="#AE95E2"/>
<stop offset="1" stop-color="#6691FF"/>
</linearGradient>
<linearGradient id="paint2_linear_182_698" x1="-5.7163e-06" y1="122.745" x2="12.9319" y2="265.791" gradientUnits="userSpaceOnUse">
<stop stop-color="#AE95E2"/>
<stop offset="1" stop-color="#6691FF"/>
</linearGradient>
<linearGradient id="paint3_linear_182_698" x1="9.67419" y1="191.585" x2="18.5714" y2="235.109" gradientUnits="userSpaceOnUse">
<stop stop-color="#AE95E2"/>
<stop offset="1" stop-color="#6691FF"/>
</linearGradient>
<linearGradient id="paint4_linear_182_698" x1="11.7584" y1="193.611" x2="19.684" y2="232.383" gradientUnits="userSpaceOnUse">
<stop stop-color="#AE95E2"/>
<stop offset="1" stop-color="#6691FF"/>
</linearGradient>
<linearGradient id="paint5_linear_182_698" x1="11.5895" y1="193.597" x2="19.613" y2="232.781" gradientUnits="userSpaceOnUse">
<stop stop-color="#AE95E2"/>
<stop offset="1" stop-color="#6691FF"/>
</linearGradient>
<linearGradient id="paint6_linear_182_698" x1="60.2809" y1="135.565" x2="82.4526" y2="244.029" gradientUnits="userSpaceOnUse">
<stop stop-color="#9599E2"/>
<stop offset="1" stop-color="#8BC6EC"/>
</linearGradient>
<linearGradient id="paint7_linear_182_698" x1="59.9395" y1="135.561" x2="82.2419" y2="244.739" gradientUnits="userSpaceOnUse">
<stop stop-color="#AE95E2"/>
<stop offset="1" stop-color="#6691FF"/>
</linearGradient>
<linearGradient id="paint8_linear_182_698" x1="168.301" y1="135.565" x2="190.472" y2="244.029" gradientUnits="userSpaceOnUse">
<stop stop-color="#9599E2"/>
<stop offset="1" stop-color="#8BC6EC"/>
</linearGradient>
<linearGradient id="paint9_linear_182_698" x1="167.958" y1="135.561" x2="190.261" y2="244.739" gradientUnits="userSpaceOnUse">
<stop stop-color="#AE95E2"/>
<stop offset="1" stop-color="#6691FF"/>
</linearGradient>
<linearGradient id="paint10_linear_182_698" x1="27.0657" y1="176.795" x2="27.1502" y2="178.082" gradientUnits="userSpaceOnUse">
<stop stop-color="#AE95E2"/>
<stop offset="1" stop-color="#6691FF"/>
</linearGradient>
<linearGradient id="paint11_linear_182_698" x1="27.0657" y1="179.517" x2="27.1502" y2="180.804" gradientUnits="userSpaceOnUse">
<stop stop-color="#AE95E2"/>
<stop offset="1" stop-color="#6691FF"/>
</linearGradient>
<linearGradient id="paint12_linear_182_698" x1="27.0657" y1="182.245" x2="27.1502" y2="183.533" gradientUnits="userSpaceOnUse">
<stop stop-color="#AE95E2"/>
<stop offset="1" stop-color="#6691FF"/>
</linearGradient>
<linearGradient id="paint13_linear_182_698" x1="828.65" y1="3415.96" x2="723.592" y2="3597.95" gradientUnits="userSpaceOnUse">
<stop stop-color="#D6DFEE"/>
<stop offset="0.5" stop-color="#B5C4E5"/>
<stop offset="1" stop-color="#A3BCE2"/>
</linearGradient>
<linearGradient id="paint14_linear_182_698" x1="34.1271" y1="174.511" x2="36.8393" y2="187.797" gradientUnits="userSpaceOnUse">
<stop stop-color="#AE95E2"/>
<stop offset="1" stop-color="#6691FF"/>
</linearGradient>
<linearGradient id="paint15_linear_182_698" x1="828.65" y1="3034.55" x2="723.592" y2="3216.42" gradientUnits="userSpaceOnUse">
<stop stop-color="#D6DFEE"/>
<stop offset="0.5" stop-color="#B5C4E5"/>
<stop offset="1" stop-color="#A3BCE2"/>
</linearGradient>
<linearGradient id="paint16_linear_182_698" x1="34.1271" y1="155.035" x2="36.8421" y2="168.327" gradientUnits="userSpaceOnUse">
<stop stop-color="#AE95E2"/>
<stop offset="1" stop-color="#6691FF"/>
</linearGradient>
<linearGradient id="paint17_linear_182_698" x1="386.763" y1="3034.55" x2="281.705" y2="3216.42" gradientUnits="userSpaceOnUse">
<stop stop-color="#D6DFEE"/>
<stop offset="0.5" stop-color="#B5C4E5"/>
<stop offset="1" stop-color="#A3BCE2"/>
</linearGradient>
<linearGradient id="paint18_linear_182_698" x1="11.5703" y1="155.035" x2="14.2853" y2="168.327" gradientUnits="userSpaceOnUse">
<stop stop-color="#AE95E2"/>
<stop offset="1" stop-color="#6691FF"/>
</linearGradient>
<linearGradient id="paint19_linear_182_698" x1="21.4326" y1="135.112" x2="24.8154" y2="151.66" gradientUnits="userSpaceOnUse">
<stop stop-color="#9599E2"/>
<stop offset="1" stop-color="#8BC6EC"/>
</linearGradient>
<linearGradient id="paint20_linear_182_698" x1="16.9844" y1="176.795" x2="17.238" y2="178.035" gradientUnits="userSpaceOnUse">
<stop stop-color="#AE95E2"/>
<stop offset="1" stop-color="#6691FF"/>
</linearGradient>
<linearGradient id="paint21_linear_182_698" x1="37.7789" y1="158.84" x2="37.8053" y2="159.653" gradientUnits="userSpaceOnUse">
<stop stop-color="#AE95E2"/>
<stop offset="1" stop-color="#6691FF"/>
</linearGradient>
<linearGradient id="paint22_linear_182_698" x1="37.7789" y1="160.244" x2="37.8053" y2="161.057" gradientUnits="userSpaceOnUse">
<stop stop-color="#AE95E2"/>
<stop offset="1" stop-color="#6691FF"/>
</linearGradient>
<linearGradient id="paint23_linear_182_698" x1="37.7789" y1="161.648" x2="37.8053" y2="162.46" gradientUnits="userSpaceOnUse">
<stop stop-color="#AE95E2"/>
<stop offset="1" stop-color="#6691FF"/>
</linearGradient>
<linearGradient id="paint24_linear_182_698" x1="16.9844" y1="160.13" x2="17.3739" y2="162.58" gradientUnits="userSpaceOnUse">
<stop stop-color="#AE95E2"/>
<stop offset="1" stop-color="#6691FF"/>
</linearGradient>
<linearGradient id="paint25_linear_182_698" x1="15.2281" y1="158.963" x2="15.6177" y2="161.414" gradientUnits="userSpaceOnUse">
<stop stop-color="#AE95E2"/>
<stop offset="1" stop-color="#6691FF"/>
</linearGradient>
<linearGradient id="paint26_linear_182_698" x1="10.1281" y1="124.731" x2="11.0807" y2="129.392" gradientUnits="userSpaceOnUse">
<stop stop-color="#AE95E2"/>
<stop offset="1" stop-color="#6691FF"/>
</linearGradient>
<linearGradient id="paint27_linear_182_698" x1="22.0507" y1="124.731" x2="23.0033" y2="129.392" gradientUnits="userSpaceOnUse">
<stop stop-color="#AE95E2"/>
<stop offset="1" stop-color="#6691FF"/>
</linearGradient>
<linearGradient id="paint28_linear_182_698" x1="33.9731" y1="124.731" x2="34.9258" y2="129.392" gradientUnits="userSpaceOnUse">
<stop stop-color="#AE95E2"/>
<stop offset="1" stop-color="#6691FF"/>
</linearGradient>
<linearGradient id="paint29_linear_182_698" x1="45.9017" y1="124.731" x2="46.8544" y2="129.392" gradientUnits="userSpaceOnUse">
<stop stop-color="#AE95E2"/>
<stop offset="1" stop-color="#6691FF"/>
</linearGradient>
<linearGradient id="paint30_linear_182_698" x1="57.8242" y1="124.731" x2="58.7769" y2="129.392" gradientUnits="userSpaceOnUse">
<stop stop-color="#AE95E2"/>
<stop offset="1" stop-color="#6691FF"/>
</linearGradient>
<linearGradient id="paint31_linear_182_698" x1="69.7468" y1="124.731" x2="70.6995" y2="129.392" gradientUnits="userSpaceOnUse">
<stop stop-color="#AE95E2"/>
<stop offset="1" stop-color="#6691FF"/>
</linearGradient>
<linearGradient id="paint32_linear_182_698" x1="81.6693" y1="124.731" x2="82.622" y2="129.392" gradientUnits="userSpaceOnUse">
<stop stop-color="#AE95E2"/>
<stop offset="1" stop-color="#6691FF"/>
</linearGradient>
<linearGradient id="paint33_linear_182_698" x1="93.5979" y1="124.731" x2="94.5505" y2="129.392" gradientUnits="userSpaceOnUse">
<stop stop-color="#AE95E2"/>
<stop offset="1" stop-color="#6691FF"/>
</linearGradient>
<linearGradient id="paint34_linear_182_698" x1="105.52" y1="124.731" x2="106.473" y2="129.392" gradientUnits="userSpaceOnUse">
<stop stop-color="#AE95E2"/>
<stop offset="1" stop-color="#6691FF"/>
</linearGradient>
<linearGradient id="paint35_linear_182_698" x1="117.443" y1="124.731" x2="118.396" y2="129.392" gradientUnits="userSpaceOnUse">
<stop stop-color="#AE95E2"/>
<stop offset="1" stop-color="#6691FF"/>
</linearGradient>
<linearGradient id="paint36_linear_182_698" x1="129.365" y1="124.731" x2="130.318" y2="129.392" gradientUnits="userSpaceOnUse">
<stop stop-color="#AE95E2"/>
<stop offset="1" stop-color="#6691FF"/>
</linearGradient>
<linearGradient id="paint37_linear_182_698" x1="141.294" y1="124.731" x2="142.247" y2="129.392" gradientUnits="userSpaceOnUse">
<stop stop-color="#AE95E2"/>
<stop offset="1" stop-color="#6691FF"/>
</linearGradient>
<linearGradient id="paint38_linear_182_698" x1="153.217" y1="124.731" x2="154.169" y2="129.392" gradientUnits="userSpaceOnUse">
<stop stop-color="#AE95E2"/>
<stop offset="1" stop-color="#6691FF"/>
</linearGradient>
<linearGradient id="paint39_linear_182_698" x1="165.139" y1="124.731" x2="166.092" y2="129.392" gradientUnits="userSpaceOnUse">
<stop stop-color="#AE95E2"/>
<stop offset="1" stop-color="#6691FF"/>
</linearGradient>
<linearGradient id="paint40_linear_182_698" x1="177.062" y1="124.731" x2="178.014" y2="129.392" gradientUnits="userSpaceOnUse">
<stop stop-color="#AE95E2"/>
<stop offset="1" stop-color="#6691FF"/>
</linearGradient>
<linearGradient id="paint41_linear_182_698" x1="188.99" y1="124.731" x2="189.943" y2="129.392" gradientUnits="userSpaceOnUse">
<stop stop-color="#AE95E2"/>
<stop offset="1" stop-color="#6691FF"/>
</linearGradient>
<linearGradient id="paint42_linear_182_698" x1="200.913" y1="124.731" x2="201.865" y2="129.392" gradientUnits="userSpaceOnUse">
<stop stop-color="#AE95E2"/>
<stop offset="1" stop-color="#6691FF"/>
</linearGradient>
<linearGradient id="paint43_linear_182_698" x1="212.835" y1="124.731" x2="213.788" y2="129.392" gradientUnits="userSpaceOnUse">
<stop stop-color="#AE95E2"/>
<stop offset="1" stop-color="#6691FF"/>
</linearGradient>
<linearGradient id="paint44_linear_182_698" x1="224.758" y1="124.731" x2="225.71" y2="129.392" gradientUnits="userSpaceOnUse">
<stop stop-color="#AE95E2"/>
<stop offset="1" stop-color="#6691FF"/>
</linearGradient>
<linearGradient id="paint45_linear_182_698" x1="236.686" y1="124.731" x2="237.639" y2="129.392" gradientUnits="userSpaceOnUse">
<stop stop-color="#AE95E2"/>
<stop offset="1" stop-color="#6691FF"/>
</linearGradient>
<linearGradient id="paint46_linear_182_698" x1="248.609" y1="124.731" x2="249.561" y2="129.392" gradientUnits="userSpaceOnUse">
<stop stop-color="#AE95E2"/>
<stop offset="1" stop-color="#6691FF"/>
</linearGradient>
<linearGradient id="paint47_linear_182_698" x1="260.531" y1="124.731" x2="261.484" y2="129.392" gradientUnits="userSpaceOnUse">
<stop stop-color="#AE95E2"/>
<stop offset="1" stop-color="#6691FF"/>
</linearGradient>
<linearGradient id="paint48_linear_182_698" x1="22.8362" y1="136.109" x2="25.5346" y2="149.376" gradientUnits="userSpaceOnUse">
<stop stop-color="#AE95E2"/>
<stop offset="1" stop-color="#6691FF"/>
</linearGradient>
<linearGradient id="paint49_linear_182_698" x1="20.3934" y1="1.0929" x2="52.3854" y2="132.625" gradientUnits="userSpaceOnUse">
<stop stop-color="#AE95E2"/>
<stop offset="1" stop-color="#6691FF"/>
</linearGradient>
<linearGradient id="paint50_linear_182_698" x1="20.3934" y1="1.0929" x2="52.3854" y2="132.625" gradientUnits="userSpaceOnUse">
<stop stop-color="#AE95E2"/>
<stop offset="1" stop-color="#6691FF"/>
</linearGradient>
<linearGradient id="paint51_linear_182_698" x1="68.0896" y1="55.1502" x2="89.0716" y2="122.738" gradientUnits="userSpaceOnUse">
<stop stop-color="#AE95E2"/>
<stop offset="1" stop-color="#6691FF"/>
</linearGradient>
<linearGradient id="paint52_linear_182_698" x1="68.0896" y1="55.1502" x2="89.0716" y2="122.738" gradientUnits="userSpaceOnUse">
<stop stop-color="#AE95E2"/>
<stop offset="1" stop-color="#6691FF"/>
</linearGradient>
<linearGradient id="paint53_linear_182_698" x1="87.9301" y1="71.9709" x2="96.8358" y2="115.537" gradientUnits="userSpaceOnUse">
<stop stop-color="#9599E2"/>
<stop offset="1" stop-color="#8BC6EC"/>
</linearGradient>
<linearGradient id="paint54_linear_182_698" x1="87.8838" y1="89.8796" x2="90.3957" y2="113.395" gradientUnits="userSpaceOnUse">
<stop stop-color="#AE95E2"/>
<stop offset="1" stop-color="#6691FF"/>
</linearGradient>
<linearGradient id="paint55_linear_182_698" x1="96.0425" y1="79.5723" x2="101.135" y2="104.485" gradientUnits="userSpaceOnUse">
<stop stop-color="#AE95E2"/>
<stop offset="1" stop-color="#6691FF"/>
</linearGradient>
<linearGradient id="paint56_linear_182_698" x1="102.046" y1="85.2621" x2="103.988" y2="95.6012" gradientUnits="userSpaceOnUse">
<stop stop-color="#AE95E2"/>
<stop offset="1" stop-color="#6691FF"/>
</linearGradient>
<linearGradient id="paint57_linear_182_698" x1="102.046" y1="85.2621" x2="103.988" y2="95.6012" gradientUnits="userSpaceOnUse">
<stop stop-color="#AE95E2"/>
<stop offset="1" stop-color="#6691FF"/>
</linearGradient>
<linearGradient id="paint58_linear_182_698" x1="110.195" y1="22.674" x2="114.497" y2="39.5235" gradientUnits="userSpaceOnUse">
<stop stop-color="#AE95E2"/>
<stop offset="1" stop-color="#6691FF"/>
</linearGradient>
<linearGradient id="paint59_linear_182_698" x1="110.882" y1="8.96555" x2="124.867" y2="34.9531" gradientUnits="userSpaceOnUse">
<stop stop-color="#9599E2"/>
<stop offset="1" stop-color="#8BC6EC"/>
</linearGradient>
<linearGradient id="paint60_linear_182_698" x1="110.882" y1="8.96555" x2="124.867" y2="34.9531" gradientUnits="userSpaceOnUse">
<stop stop-color="#9599E2"/>
<stop offset="1" stop-color="#8BC6EC"/>
</linearGradient>
<linearGradient id="paint61_linear_182_698" x1="110.201" y1="8.05882" x2="114.493" y2="24.8871" gradientUnits="userSpaceOnUse">
<stop stop-color="#AE95E2"/>
<stop offset="1" stop-color="#6691FF"/>
</linearGradient>
<linearGradient id="paint62_linear_182_698" x1="116.035" y1="28.759" x2="116.476" y2="31.0648" gradientUnits="userSpaceOnUse">
<stop stop-color="#AE95E2"/>
<stop offset="1" stop-color="#6691FF"/>
</linearGradient>
<linearGradient id="paint63_linear_182_698" x1="114.248" y1="27.7128" x2="115.978" y2="31.9437" gradientUnits="userSpaceOnUse">
<stop stop-color="#AE95E2"/>
<stop offset="1" stop-color="#6691FF"/>
</linearGradient>
<linearGradient id="paint64_linear_182_698" x1="132.934" y1="71.9709" x2="141.84" y2="115.537" gradientUnits="userSpaceOnUse">
<stop stop-color="#9599E2"/>
<stop offset="1" stop-color="#8BC6EC"/>
</linearGradient>
<linearGradient id="paint65_linear_182_698" x1="132.883" y1="89.8796" x2="135.394" y2="113.395" gradientUnits="userSpaceOnUse">
<stop stop-color="#AE95E2"/>
<stop offset="1" stop-color="#6691FF"/>
</linearGradient>
<linearGradient id="paint66_linear_182_698" x1="141.059" y1="79.5723" x2="146.151" y2="104.485" gradientUnits="userSpaceOnUse">
<stop stop-color="#AE95E2"/>
<stop offset="1" stop-color="#6691FF"/>
</linearGradient>
<linearGradient id="paint67_linear_182_698" x1="147.05" y1="86.2099" x2="148.993" y2="96.5492" gradientUnits="userSpaceOnUse">
<stop stop-color="#AE95E2"/>
<stop offset="1" stop-color="#6691FF"/>
</linearGradient>
<linearGradient id="paint68_linear_182_698" x1="147.05" y1="86.2099" x2="148.993" y2="96.5492" gradientUnits="userSpaceOnUse">
<stop stop-color="#AE95E2"/>
<stop offset="1" stop-color="#6691FF"/>
</linearGradient>
<linearGradient id="paint69_linear_182_698" x1="149.924" y1="55.1502" x2="169.357" y2="123.747" gradientUnits="userSpaceOnUse">
<stop stop-color="#AE95E2"/>
<stop offset="1" stop-color="#6691FF"/>
</linearGradient>
<linearGradient id="paint70_linear_182_698" x1="149.924" y1="55.1502" x2="169.357" y2="123.747" gradientUnits="userSpaceOnUse">
<stop stop-color="#AE95E2"/>
<stop offset="1" stop-color="#6691FF"/>
</linearGradient>
<linearGradient id="paint71_linear_182_698" x1="145.889" y1="1.0929" x2="178.309" y2="132.402" gradientUnits="userSpaceOnUse">
<stop stop-color="#AE95E2"/>
<stop offset="1" stop-color="#6691FF"/>
</linearGradient>
<linearGradient id="paint72_linear_182_698" x1="145.889" y1="1.0929" x2="178.309" y2="132.402" gradientUnits="userSpaceOnUse">
<stop stop-color="#AE95E2"/>
<stop offset="1" stop-color="#6691FF"/>
</linearGradient>
<linearGradient id="paint73_linear_182_698" x1="141.709" y1="22.674" x2="146.01" y2="39.5235" gradientUnits="userSpaceOnUse">
<stop stop-color="#AE95E2"/>
<stop offset="1" stop-color="#6691FF"/>
</linearGradient>
<linearGradient id="paint74_linear_182_698" x1="142.396" y1="8.95346" x2="156.39" y2="34.9472" gradientUnits="userSpaceOnUse">
<stop stop-color="#9599E2"/>
<stop offset="1" stop-color="#8BC6EC"/>
</linearGradient>
<linearGradient id="paint75_linear_182_698" x1="142.396" y1="8.95346" x2="156.39" y2="34.9472" gradientUnits="userSpaceOnUse">
<stop stop-color="#9599E2"/>
<stop offset="1" stop-color="#8BC6EC"/>
</linearGradient>
<linearGradient id="paint76_linear_182_698" x1="141.715" y1="8.05882" x2="146.007" y2="24.8871" gradientUnits="userSpaceOnUse">
<stop stop-color="#AE95E2"/>
<stop offset="1" stop-color="#6691FF"/>
</linearGradient>
<linearGradient id="paint77_linear_182_698" x1="145.762" y1="28.759" x2="146.204" y2="31.0644" gradientUnits="userSpaceOnUse">
<stop stop-color="#AE95E2"/>
<stop offset="1" stop-color="#6691FF"/>
</linearGradient>
<linearGradient id="paint78_linear_182_698" x1="147.621" y1="27.7128" x2="149.351" y2="31.9437" gradientUnits="userSpaceOnUse">
<stop stop-color="#AE95E2"/>
<stop offset="1" stop-color="#6691FF"/>
</linearGradient>
</defs>
</svg>
